<svg xmlns="http://www.w3.org/2000/svg" viewBox="0 0 96 24"><defs><style>.cls-1{fill:#e5b552;}</style></defs><g id="Layer_2" data-name="Layer 2"><g id="Layer_1-2" data-name="Layer 1"><g id="Finished"><g id="Layer_6" data-name="Layer 6"><g id="About"><path class="cls-1" d="M8,0,0,15v9H4V22h8v2h4V0Zm4,18H4V16L10,4h2Z"/><path class="cls-1" d="M40,0V24H56V0ZM52,20H44V4h8Z"/><path class="cls-1" d="M72,0V20H64V0H60V24H76V0Z"/><polygon class="cls-1" points="80 0 80 4 86 4 86 24 90 24 90 4 96 4 96 0 80 0"/><path class="cls-1" d="M34,10V0H20V24H36V12ZM24,4h6v6H24Zm8,16H24V14h8Z"/></g></g></g></g></g></svg>