<svg xmlns="http://www.w3.org/2000/svg" viewBox="0 0 136 24"><defs><style>.cls-1{fill:#e5b552;}</style></defs><g id="Layer_2" data-name="Layer 2"><g id="Layer_1-2" data-name="Layer 1"><g id="Finished"><g id="Layer_6" data-name="Layer 6"><g id="Contact"><polygon class="cls-1" points="16 24 16 20 4 20 4 4 16 4 16 0 0 0 0 24 16 24"/><polygon class="cls-1" points="116 24 116 20 104 20 104 4 116 4 116 0 100 0 100 24 116 24"/><polygon class="cls-1" points="52 0 52 13 44 5 44 0 40 0 40 24 44 24 44 11 52 19 52 24 56 24 56 0 52 0"/><path class="cls-1" d="M88,0,80,15v9h4V22h8v2h4V0Zm4,18H84V16L90,4h2Z"/><path class="cls-1" d="M20,0V24H36V0ZM32,20H24V4h8Z"/><polygon class="cls-1" points="60 0 60 4 66 4 66 24 70 24 70 4 76 4 76 0 60 0"/><polygon class="cls-1" points="120 0 120 4 126 4 126 24 130 24 130 4 136 4 136 0 120 0"/></g></g></g></g></g></svg>