<svg
  xmlns="http://www.w3.org/2000/svg"
  xmlns:xlink="http://www.w3.org/1999/xlink"
  width="256"
  height="256"
  viewBox="0 0 848 848"
>
  <defs>
    <style>
      .cls-1 {
        fill: none;
      }
      .cls-2 {
        fill: #e5b552;
      }
      .cls-3 {
        fill: #ffe3aa;
      }
      .cls-4 {
        fill: #f5c86c;
      }
      .cls-5 {
        fill: #aaaab3;
      }
      .cls-6 {
        fill: #dfdfea;
      }
      .cls-7 {
        fill: #c2c2cc;
      }
      .cls-11,
      .cls-8 {
        fill: url(#New_Pattern_Swatch_4);
      }
      .cls-9 {
        fill: #626267;
      }
      .cls-10 {
        fill: #2e2e33;
      }
      .cls-11 {
        stroke: #626267;
      }
      .cls-11,
      .cls-12 {
        stroke-miterlimit: 20;
        stroke-width: 7px;
      }
      .cls-12 {
        stroke: #996e31;
      }
      .cls-12,
      .cls-13 {
        fill: url(#New_Pattern_Swatch_1);
      }
      .cls-14 {
        fill: #996e31;
      }
    </style>
    <pattern
      id="New_Pattern_Swatch_4"
      data-name="New Pattern Swatch 4"
      width="288"
      height="288"
      patternTransform="translate(-37.5 -275.5) scale(3.5)"
      patternUnits="userSpaceOnUse"
      viewBox="0 0 288 288"
    >
      <rect class="cls-1" width="288" height="288" />
      <polygon
        class="cls-5"
        points="128 0 0 0 0 256 0 288 288 288 288 0 128 0"
      />
      <polygon class="cls-6" points="176 0 32 288 24 288 168 0 176 0" />
      <polygon class="cls-7" points="168 0 24 288 8 288 152 0 168 0" />
      <polygon class="cls-6" points="32 0 0 64 0 48 24 0 32 0" />
      <polygon class="cls-7" points="24 0 0 48 0 16 8 0 24 0" />
      <polygon class="cls-6" points="288 48 288 64 176 288 168 288 288 48" />
      <polygon class="cls-7" points="288 16 288 48 168 288 152 288 288 16" />
      <polygon class="cls-7" points="176 288 208 288 288 128 288 64 176 288" />
      <polygon class="cls-7" points="32 288 64 288 208 0 176 0 32 288" />
      <polygon class="cls-7" points="64 0 0 128 0 64 32 0 64 0" />
    </pattern>
    <pattern
      id="New_Pattern_Swatch_1"
      data-name="New Pattern Swatch 1"
      width="288"
      height="288"
      patternTransform="translate(-37.5 -275.5) scale(3.5)"
      patternUnits="userSpaceOnUse"
      viewBox="0 0 288 288"
    >
      <rect class="cls-1" width="288" height="288" />
      <rect class="cls-2" width="288" height="288" />
      <polygon class="cls-3" points="176 0 32 288 24 288 168 0 176 0" />
      <polygon class="cls-4" points="168 0 24 288 8 288 152 0 168 0" />
      <polygon class="cls-3" points="32 0 0 64 0 48 24 0 32 0" />
      <polygon class="cls-4" points="24 0 0 48 0 16 8 0 24 0" />
      <polygon class="cls-3" points="288 48 288 64 176 288 168 288 288 48" />
      <polygon class="cls-4" points="288 16 288 48 168 288 152 288 288 16" />
      <polygon class="cls-4" points="176 288 208 288 288 128 288 64 176 288" />
      <polygon class="cls-4" points="32 288 64 288 208 0 176 0 32 288" />
      <polygon class="cls-4" points="64 0 0 128 0 64 32 0 64 0" />
    </pattern>
  </defs>
  <g id="Layer_2" data-name="Layer 2">
    <g id="Layer_1-2" data-name="Layer 1">
      <g id="For_Insta" data-name="For Insta">
        <circle class="cls-8" cx="312" cy="280.5" r="35.88" />
        <path
          class="cls-9"
          d="M312,253.35a63.43,63.43,0,0,0,27.15,27.15A63.43,63.43,0,0,0,312,307.65a63.43,63.43,0,0,0-27.15-27.15A63.43,63.43,0,0,0,312,253.35m0-28.85a56,56,0,0,1-56,56,56,56,0,0,1,56,56,56,56,0,0,1,56-56,56,56,0,0,1-56-56Z"
        />
        <circle class="cls-8" cx="340" cy="189.5" r="24.5" />
        <path
          class="cls-9"
          d="M340,172.72a49.52,49.52,0,0,0,16.78,16.78A49.52,49.52,0,0,0,340,206.28a49.52,49.52,0,0,0-16.78-16.78A49.52,49.52,0,0,0,340,172.72m0-25.22a42,42,0,0,1-42,42,42,42,0,0,1,42,42,42,42,0,0,1,42-42,42,42,0,0,1-42-42Z"
        />
        <path
          class="cls-10"
          d="M424,0C189.83,0,0,189.83,0,424S189.83,848,424,848,848,658.17,848,424,658.17,0,424,0ZM312,336.5a56,56,0,0,0-56-56,56,56,0,0,0,56-56,56,56,0,0,0,56,56A56,56,0,0,0,312,336.5Zm28-105a42,42,0,0,0-42-42,42,42,0,0,0,42-42,42,42,0,0,0,42,42A42,42,0,0,0,340,231.5Z"
        />
        <path
          class="cls-8"
          d="M8.29,398.57A414.12,414.12,0,0,1,30.61,286.9c1.08-3.1,2.37-6.76,3.81-10.4l0-.15c.43-1.25.92-2.5,1.45-3.83l.42-1.08c.83-2.09,1.68-4.25,2.56-6.34,1.42-3.49,2.92-6.94,4.32-10.15,2.41-5.4,5-10.83,7.59-16.12,1.32-2.66,2.74-5.42,4.48-8.7,1.44-2.77,3-5.52,4.42-8.17a419.64,419.64,0,0,1,24.67-39.11c1.85-2.62,3.77-5.23,5.42-7.48,3.56-4.76,7.38-9.64,11.34-14.49,1.71-2.1,3.73-4.58,5.89-7.06s4.19-4.88,6-7l1.48-1.64c1.56-1.72,3.12-3.45,4.73-5.16,2.09-2.27,4.22-4.5,6.34-6.66,4.63-4.73,9.08-9.1,13.63-13.38s8.69-8,12.76-11.44a416.06,416.06,0,0,1,37-28.51c2.54-1.74,5.16-3.47,7.69-5.15,3-1.94,5.48-3.52,7.78-4.94,2.59-1.63,5.25-3.23,7.91-4.79s5.43-3.17,8-4.62c2.95-1.66,5.61-3.12,8.16-4.48,7.82-4.17,16.25-8.3,25.06-12.25,2.78-1.25,5.09-2.26,7.26-3.2,1.43-.61,2.86-1.19,4.29-1.77l.14-.06c1.87-.81,3.91-1.63,6.43-2.59,2.68-1.08,5.37-2.08,7.88-3,3.27-1.21,6-2.21,8.83-3.15s5.93-2,8.92-3c2.66-.85,5.45-1.7,9.08-2.78,1.89-.55,3.79-1.1,5.73-1.62,4.5-1.29,9.08-2.44,12.57-3.31,2-.48,4.09-1,6.14-1.41,4.55-1.07,8.62-1.95,12.46-2.68,3.15-.63,6.37-1.19,9.48-1.74,2.31-.38,4.57-.76,6.87-1.1,2.13-.35,4.29-.69,6.42-.93l.14,0c2.5-.38,4.68-.68,6.67-.89,2.59-.35,5.3-.65,8.61-1l2.09-.2c-88.55,98.33-143.91,224.07-156.37,355.4l-92.5,14.25Zm164.34-171a470.62,470.62,0,0,0-38.36,132.87l-.63,4.64,80.83-12.46.31-2.64A633.86,633.86,0,0,1,341.59,38.23L354.83,21l-18,12.24a470.84,470.84,0,0,0-122.23,121c-.36-.46-.72-.89-1.08-1.33-.57-.68-1.21-1.37-2-2.11-.49-.49-1-1-1.62-1.56a21.34,21.34,0,0,0-1.63-1.43c-.54-.47-1.1-1-1.74-1.43s-1.17-.88-1.86-1.3a31.53,31.53,0,0,0-2.94-1.89,45.51,45.51,0,1,0-45.53,78.81c.93.54,1.83,1,2.71,1.43s1.9.91,2.82,1.27c.73.3,1.58.66,2.51.94a26.63,26.63,0,0,0,3.32,1c.69.19,1.3.34,1.91.45A30.66,30.66,0,0,0,172.63,227.59ZM179,221h-1l-1,0a37.62,37.62,0,0,1-6.42-2.91,35,35,0,1,1,35-60.61,35.78,35.78,0,0,1,5.64,4l.42.67A38.5,38.5,0,0,1,179,221Z"
        />
        <path
          class="cls-9"
          d="M375,13.89c-84.93,97.16-138.24,219.83-151,347.92l-89.81,13.83L12.07,394.45A410.48,410.48,0,0,1,33.92,288c1.07-3.06,2.34-6.68,3.75-10.26l.06-.15.05-.15c.41-1.18.89-2.4,1.4-3.69l.41-1.05c.82-2.07,1.66-4.22,2.53-6.28l0,0,0,0c1.39-3.4,2.87-6.83,4.25-10,2.4-5.38,4.93-10.77,7.55-16,1.3-2.64,2.7-5.38,4.42-8.61v0l0,0c1.39-2.68,2.9-5.41,4.35-8.05a416.31,416.31,0,0,1,24.48-38.79c1.83-2.59,3.74-5.19,5.35-7.39,3.54-4.73,7.32-9.57,11.28-14.4,1.67-2.07,3.68-4.52,5.8-7l0,0,0,0c2.18-2.56,4.13-4.8,6-6.86l1.46-1.61c1.53-1.7,3.12-3.45,4.7-5.13l0,0,0,0c2-2.21,4.14-4.41,6.27-6.57,4.57-4.69,9-9,13.49-13.25s8.62-7.9,12.68-11.37A412.16,412.16,0,0,1,191,83c2.5-1.72,5.1-3.44,7.62-5.1,3-1.94,5.44-3.5,7.75-4.93,2.55-1.6,5.17-3.18,7.83-4.74s5.37-3.14,7.95-4.58c2.9-1.63,5.54-3.08,8.09-4.44C238,55,246.35,51,255.09,47c2.77-1.24,5.06-2.25,7.2-3.17,1.4-.6,2.79-1.16,4.28-1.77l.09,0,.08,0c1.81-.79,3.81-1.59,6.28-2.53l.05,0,.05,0c2.44-1,4.86-1.88,7.74-2.94,3.25-1.2,6-2.19,8.76-3.13s5.87-2,8.88-2.93c2.59-.84,5.36-1.68,9-2.76,1.93-.56,3.75-1.09,5.62-1.59h.06l.05,0c4.4-1.25,8.92-2.4,12.37-3.25,2.48-.59,4.36-1,6.08-1.4h.05l0,0c4.46-1.05,8.48-1.91,12.27-2.63h.06c3.07-.61,6.27-1.18,9.33-1.72l1.28-.21-19.84,13.5A474.5,474.5,0,0,0,214.3,148.51l-.25-.25c-.48-.49-1.07-1.08-1.72-1.65a22.88,22.88,0,0,0-1.77-1.56c-.55-.48-1.17-1-1.88-1.54s-1.22-.92-2-1.4c-1.09-.8-2.16-1.43-3.11-2l0,0,0,0a49,49,0,0,0-49,84.88c1,.6,2,1.1,2.92,1.54,1.06.53,2.06,1,3.06,1.38.8.33,1.69.69,2.7,1a32.8,32.8,0,0,0,3.57,1.05l.9.24A473.85,473.85,0,0,0,130.8,360l-1.25,9.27,9.25-1.42,73.57-11.34,5.27-.81.62-5.29a625.48,625.48,0,0,1,23.62-111.63L244,239l-1.94-.63q8.07-26,18.4-51.44A632.54,632.54,0,0,1,344.36,40.36L363.5,15.42c1-.15,2-.29,3-.4l.15,0,.14,0c2.45-.38,4.58-.66,6.51-.87h.19l1.52-.2M188.1,156.26a31.58,31.58,0,0,1,15.78,4.25,30.76,30.76,0,0,1,4.68,3.29l.13.21a35,35,0,0,1-29.7,53.5h-1.34a32.94,32.94,0,0,1-5.3-2.45,31.5,31.5,0,0,1,15.75-58.78M392.29,5.19l-1.29.1c-.5,0-.95.08-1.44.14-2.77.21-5.56.46-8.33.74s-5.77.59-8.65,1c-2.27.24-4.54.56-6.82.91s-4.38.59-6.55.95c-2.34.34-4.65.73-7,1.11-3.18.56-6.37,1.12-9.52,1.75-4.23.81-8.4,1.72-12.56,2.7-2.07.45-4.17.94-6.24,1.44-4.23,1-8.47,2.13-12.63,3.32-2,.52-3.88,1.09-5.81,1.64-3.08.91-6.09,1.82-9.13,2.8s-6,2-9,3-6,2.1-8.93,3.18c-2.65,1-5.28,2-7.9,3-2.21.85-4.41,1.72-6.58,2.66-1.48.6-2.95,1.19-4.41,1.82-2.46,1-4.91,2.14-7.32,3.22Q239.35,46.42,227,53c-2.77,1.47-5.49,3-8.23,4.51s-5.42,3.08-8.08,4.66-5.35,3.18-8,4.83-5.29,3.33-7.87,5-5.18,3.42-7.74,5.17a423.57,423.57,0,0,0-37.31,28.74c-4.37,3.75-8.68,7.63-12.88,11.55-4.69,4.41-9.24,8.89-13.72,13.47q-3.26,3.31-6.4,6.73c-2.14,2.27-4.2,4.58-6.27,6.85s-4.1,4.66-6.09,7-4,4.73-5.95,7.15Q92.55,165.86,87,173.29c-1.86,2.52-3.68,5-5.46,7.53a422,422,0,0,0-24.89,39.44c-1.51,2.73-3,5.46-4.44,8.23s-3.05,5.81-4.52,8.78q-4,8-7.67,16.28c-1.47,3.36-2.93,6.75-4.34,10.18-1.05,2.49-2,5-3,7.49-.53,1.33-1.05,2.66-1.51,4-1.37,3.47-2.62,7-3.85,10.54A417.32,417.32,0,0,0,4.56,402.68l130.76-20.12,95.2-14.67A613.73,613.73,0,0,1,392.29,5.19ZM179,224.51a42,42,0,0,0,35.64-64.2A470.12,470.12,0,0,1,338.81,36.09,639.57,639.57,0,0,0,211.3,349.59l-73.56,11.34A466.93,466.93,0,0,1,177.92,224.5Zm-2.58,0c-.32,0-.63,0-.95-.07-.63-.06-1.25-.13-1.85-.21a28.16,28.16,0,0,1-3.36-.59c-.59-.11-1.16-.25-1.75-.42a25.3,25.3,0,0,1-3.08-.91c-.8-.25-1.58-.56-2.34-.88s-1.72-.73-2.56-1.15-1.68-.84-2.52-1.33a42,42,0,1,1,42-72.77,28.33,28.33,0,0,1,2.76,1.79,18.17,18.17,0,0,1,1.72,1.19c.56.42,1.09.87,1.61,1.33a17,17,0,0,1,1.47,1.29c.52.46,1.05,1,1.54,1.48s1.19,1.22,1.75,1.88,1.08,1.33,1.61,2,1,1.43,1.54,2.17a38.51,38.51,0,1,0-45.15,61.84,39.59,39.59,0,0,0,7.56,3.36Z"
        />
        <path
          class="cls-8"
          d="M383.65,838.55l-2.42-.24c-3.34-.35-6.7-.73-10-1.14-7.95-1-15.18-2.12-22.09-3.4-2.48-.45-4.91-.91-7.34-1.39-6.22-1.22-12.58-2.66-19.46-4.41-3.6-.89-6.52-1.66-9.21-2.42-6.35-1.75-12.64-3.65-18.74-5.63s-12.66-4.29-19.18-6.8c-3-1.13-5.92-2.31-8.14-3.2-2.83-1.15-5.74-2.38-8.87-3.74s-6.05-2.68-8.82-4c-2.58-1.2-5.63-2.63-8.67-4.13-2.82-1.39-5.73-2.83-8.55-4.33-3.24-1.69-5.94-3.13-8.51-4.53-3.1-1.72-5.85-3.27-8.36-4.72-3-1.74-5.67-3.34-8.17-4.88s-5-3.07-8.15-5.08c-2.73-1.75-5.5-3.6-8.17-5.39l-.09-.06c-4.44-3-9.11-6.33-14.68-10.42l-.14-.09a2.92,2.92,0,0,1-.29-.23l-.15-.12c-1.87-1.39-3.8-2.83-5.68-4.29-2.51-1.93-5.1-4-8.41-6.68-2.78-2.25-5.55-4.56-8.22-6.86-4.82-4.13-9.58-8.4-14.17-12.71s-9-8.66-13.57-13.33c-2.47-2.54-4.61-4.8-6.56-6.9-4.43-4.8-8.69-9.59-12.64-14.24-2-2.37-4.07-4.83-6.06-7.31s-4-5-5.94-7.5l-.41-.54c-1.76-2.3-3.58-4.69-5.31-7.06-4-5.5-7.63-10.61-11-15.63-3.24-4.83-6.6-10.1-10.28-16.12-3.15-5.2-6.26-10.64-9.5-16.61-3-5.49-5.94-11.25-8.79-17.11-1.26-2.56-2.56-5.32-4.09-8.7C42.25,591,39.69,585,37.29,578.92c-1.18-2.88-2.38-6-3.79-9.77-2.11-5.71-4.15-11.56-6.05-17.4-.89-2.83-1.95-6.23-3-9.68-1.78-6.05-3.43-12.14-5-18.61-2.69-10.94-4.91-22-6.59-32.77-.35-1.91-.66-3.92-1-6.22a419,419,0,0,1-4.36-56.39l125.87,19.36,92.26,14.2A619.59,619.59,0,0,0,383.65,838.55Zm-122.53-87.9a474.89,474.89,0,0,0,75.65,64.11l18.06,12.31-13.31-17.33A631.39,631.39,0,0,1,212.66,476.53l-.23-2.75-81-12.48.39,4.45a471,471,0,0,0,86.73,233.71c-.5.2-1,.41-1.43.64A35,35,0,1,0,254,758.79a27.93,27.93,0,0,0,2.9-2.7l.16-.17a31.42,31.42,0,0,0,2.34-2.79,15.22,15.22,0,0,0,1.21-1.67Zm-23.6,1.66a25.37,25.37,0,0,1-16.3-44.83,27.56,27.56,0,0,1,4.09-2.79A28.07,28.07,0,0,1,252.94,714a27.75,27.75,0,0,1,4.33,28.87,23.18,23.18,0,0,1-3.42,3.48A25.51,25.51,0,0,1,237.52,752.31Z"
        />
        <path
          class="cls-9"
          d="M11.08,432.17,132.86,450.9l89.47,13.77A623.19,623.19,0,0,0,375,834.1l-3.31-.4q-4.24-.54-8.23-1.12l-19.19-25A630,630,0,0,1,216.15,476.24l-.46-5.5-5.45-.84-73.85-11.38-8.82-1.36.78,8.89a474.34,474.34,0,0,0,84.94,232,39.35,39.35,0,0,0-6.56,4.43,38.49,38.49,0,0,0,49.47,59,30.87,30.87,0,0,0,3.2-3h0l.11-.11.1-.11c.58-.63,1.23-1.36,1.89-2.19a478.45,478.45,0,0,0,73.29,61.55l19.86,13.54q-2.46-.42-4.86-.87c-2.34-.42-4.83-.89-7.3-1.38-6.14-1.2-12.44-2.63-19.3-4.37-3.53-.87-6.41-1.63-9.08-2.39h-.05c-6.27-1.74-12.52-3.61-18.58-5.59s-12.51-4.24-19-6.74c-3-1.12-5.86-2.28-8-3.16-2.81-1.14-5.69-2.36-8.81-3.71s-6-2.65-8.73-3.92-5.63-2.63-8.6-4.1c-2.81-1.38-5.71-2.82-8.49-4.29-3.14-1.65-5.9-3.12-8.43-4.49-3.07-1.71-5.79-3.25-8.28-4.67-3-1.73-5.62-3.32-8.15-4.87-2.36-1.44-4.93-3-8.06-5-2.72-1.74-5.48-3.59-8.16-5.39-4.41-3-9-6.28-14.59-10.35l-.13-.09-.06,0-.07-.06-.14-.12-.16-.11c-1.86-1.39-3.78-2.82-5.66-4.28-2.47-1.9-5-3.94-8.32-6.6-2.73-2.22-5.47-4.51-8.15-6.82-4.77-4.08-9.49-8.31-14.06-12.61-4.44-4.14-9-8.57-13.43-13.19-2.46-2.54-4.59-4.78-6.51-6.85-4.41-4.77-8.63-9.52-12.52-14.11-2-2.37-4.07-4.83-6-7.25l0,0,0,0c-2-2.42-3.94-4.9-5.84-7.38l-.46-.6c-1.74-2.27-3.53-4.62-5.24-7-4-5.45-7.56-10.52-10.89-15.51-3.2-4.77-6.54-10-10.18-16-3.12-5.16-6.21-10.55-9.43-16.48-3-5.45-5.89-11.16-8.71-17v-.05c-1.22-2.47-2.5-5.2-4-8.57v0l0,0c-2.59-5.59-5.12-11.49-7.5-17.51v0l0,0c-1.15-2.81-2.33-5.87-3.73-9.62-2.09-5.65-4.11-11.46-6-17.25-.9-2.86-2-6.23-3-9.59-1.77-6-3.4-12.07-5-18.46-2.67-10.87-4.86-21.8-6.53-32.49l0-.09V490c-.33-1.77-.63-3.72-.93-6v-.09a414.45,414.45,0,0,1-4.26-51.75M231.44,707.51a24.5,24.5,0,0,1,18.82,8.77,24.25,24.25,0,0,1,4,24.81,21.46,21.46,0,0,1-2.62,2.59,21.88,21.88,0,1,1-28.15-33.5,23,23,0,0,1,3.12-2.18,24,24,0,0,1,4.86-.49M4,424a422.19,422.19,0,0,0,4.41,60.93c.28,2.11.6,4.2,1,6.3,1.75,11.2,4,22.23,6.65,33.08,1.58,6.33,3.26,12.57,5.08,18.76,1,3.29,2,6.55,3,9.76q2.88,8.88,6.09,17.54c1.22,3.29,2.48,6.58,3.81,9.84,2.38,6,4.94,12,7.67,17.88C43,601,44.39,604,45.83,606.88q4.24,8.76,8.85,17.25t9.59,16.76c3.36,5.5,6.79,10.92,10.36,16.24s7.28,10.61,11.06,15.75c1.89,2.59,3.85,5.15,5.78,7.67s4,5.08,6,7.56,4.06,4.93,6.13,7.39q6.19,7.29,12.74,14.34c2.17,2.35,4.37,4.66,6.61,7,4.45,4.58,9,9.1,13.69,13.44s9.41,8.64,14.27,12.81q4.11,3.51,8.3,6.93c2.8,2.27,5.6,4.51,8.47,6.72,1.89,1.47,3.81,2.91,5.74,4.34a5.86,5.86,0,0,0,.6.45c4.86,3.58,9.8,7.11,14.8,10.5,2.77,1.86,5.53,3.71,8.33,5.5s5.42,3.43,8.19,5.11,5.5,3.32,8.26,4.93,5.6,3.19,8.43,4.76,5.67,3.05,8.54,4.55,5.75,2.94,8.65,4.38S245,804,248,805.39s5.92,2.7,8.89,4,6,2.56,9,3.79c2.7,1.08,5.42,2.16,8.19,3.21,6.37,2.45,12.85,4.76,19.35,6.87q9.35,3,18.87,5.67c3.08.87,6.2,1.67,9.31,2.45,6.48,1.64,13,3.14,19.64,4.44,2.45.49,4.89.94,7.38,1.4,7.35,1.37,14.8,2.48,22.3,3.43,3.32.42,6.68.8,10,1.15,2.76.29,5.57.53,8.36.74.6.1,1.16.14,1.75.18l1.3.1A613.41,613.41,0,0,1,229,458.62L133.92,444,4,424ZM224.26,701.34a466.52,466.52,0,0,1-88.94-235.9l73.85,11.37A637.18,637.18,0,0,0,338.74,811.87a470.79,470.79,0,0,1-78.4-67.13,9.25,9.25,0,0,1-.63,1.26,15.42,15.42,0,0,1-1,2c-.32.56-.66,1.08-1,1.61a13.38,13.38,0,0,1-1,1.4,29.46,29.46,0,0,1-2.17,2.59.52.52,0,0,0-.1.11,27.91,27.91,0,0,1-2.63,2.45,31.49,31.49,0,0,1-40.49-48.24,32,32,0,0,1,7.38-4.62,18.66,18.66,0,0,1,2.1-.87,2,2,0,0,1,.35-.14c.81-.28,1.61-.53,2.42-.74a4.91,4.91,0,0,1,.63-.17s-.07,0-.11.07a30.68,30.68,0,0,0-5,3.39A28.88,28.88,0,1,0,256.11,749a27.2,27.2,0,0,0,4.16-4.3l0,0a31.52,31.52,0,0,0-36-43.37Z"
        />
        <path
          class="cls-11"
          d="M199.07,261.2a28,28,0,0,0-35.89,16.73,21,21,0,1,1,12.55,26.92,21,21,0,0,1-12.55-26.92,28,28,0,1,0,35.89-16.73Z"
        />
        <path
          class="cls-12"
          d="M553.78,24.54c-4.2-1.36-8.44-2.52-12.64-3.74v-.11c-1.29-.38-2.59-.69-3.88-1.05q-3-.88-6.09-1.68c-5.88-1.57-11.76-3-17.64-4.3L488.54,180l26.63,8.65,77.6-149.28Q573.87,31.09,553.78,24.54Z"
        />
        <path
          class="cls-12"
          d="M823.46,294.22c-1.37-4.2-2.91-8.33-4.42-12.46l.11,0c-.45-1.26-1-2.48-1.44-3.78-.73-2-1.46-3.95-2.24-5.91-2.17-5.67-4.44-11.31-6.85-16.8l-149.28,77.6,3,9.09,5.67,17.5,166.35-24.95Q830,314.31,823.46,294.22Z"
        />
        <path
          class="cls-12"
          d="M763.78,177.14c-2.59-3.6-5.32-7-8-10.5l.07,0c-.83-1.09-1.67-2.1-2.51-3.19-1.33-1.64-2.63-3.29-4-4.93-3.85-4.73-7.73-9.35-11.73-13.82l-118,119.87,16.45,22.68L786.6,212Q776.21,194.24,763.78,177.14Z"
        />
        <path
          class="cls-12"
          d="M670.86,84.22c-3.57-2.63-7.22-5-10.86-7.49l0-.07c-1.12-.77-2.24-1.47-3.36-2.24-1.75-1.16-3.54-2.34-5.29-3.46Q643.74,66,636,61.4L560.78,211.9l22.68,16.45,119.87-118A412.12,412.12,0,0,0,670.86,84.22Z"
        />
        <path
          class="cls-12"
          d="M515.17,659.34l-9.09,3L488.54,668l25,166.36q20.16-4.37,40.25-10.88c4.2-1.37,8.33-2.91,12.46-4.42l0,.11c1.26-.46,2.48-1,3.74-1.44,2-.73,4-1.46,6-2.24,5.67-2.17,11.27-4.44,16.73-6.85h.07Z"
        />
        <path
          class="cls-12"
          d="M583.46,619.65l-7.77,5.64L560.78,636.1,636,786.6q17.81-10.4,34.9-22.82c3.6-2.59,7-5.32,10.5-8l0,.07c1.08-.83,2.1-1.68,3.15-2.52,1.68-1.33,3.33-2.62,5-3.95,4.73-3.85,9.35-7.73,13.82-11.73Z"
        />
        <path
          class="cls-12"
          d="M636.1,560.78l-16.45,22.68,118,119.87a410.46,410.46,0,0,0,26.15-32.48c2.63-3.56,5-7.21,7.49-10.85l.07,0c.77-1.12,1.47-2.24,2.24-3.36,1.16-1.75,2.34-3.54,3.46-5.29q5-7.65,9.56-15.43Z"
        />
        <path
          class="cls-12"
          d="M668,488.54l-8.65,26.63,149.28,77.6q8.28-18.9,14.84-39c1.36-4.2,2.51-8.44,3.74-12.64h.1c.39-1.29.7-2.59,1.06-3.88.56-2,1.15-4.06,1.68-6.09,1.57-5.88,3-11.76,4.3-17.61v0Z"
        />
        <polygon
          class="cls-8"
          points="371.73 481.22 420.5 432.45 420.5 798.23 371.73 481.22"
        />
        <path
          class="cls-9"
          d="M417,440.9V752.46l-41.54-270L417,440.9m7-16.9-56,56,56,364V424Z"
        />
        <polygon
          class="cls-8"
          points="49.77 420.5 366.78 371.73 415.55 420.5 49.77 420.5"
        />
        <path
          class="cls-9"
          d="M365.56,375.46,407.1,417H95.54l270-41.54M368,368,4,424H424l-56-56Z"
        />
        <path
          class="cls-13"
          d="M427.5,49.76l23.92,155.5,2.61.34a212.86,212.86,0,0,1,21.52,4l3.83.92c3.48.88,7,1.86,10.41,2.93a5,5,0,0,0,.7.21c2.67.87,5.43,1.77,8.07,2.75l.36.12,2.38.91,1.85.69,1.05.39.5.49,1.07,0a31.09,31.09,0,0,0,6.86.76A31.42,31.42,0,0,0,531,213.94a31.35,31.35,0,0,0,11.32,24l.17.14.19.12c1.22.78,2.44,1.59,3.66,2.4l.07.05c.31.22.65.43,1,.65l.57.37c1.38.91,2.77,1.92,4.11,2.89l2.1,1.52c.28.19.54.38.8.58l.36.28,1.59,1.19,1,.73c.42.31.83.62,1.23.94l.08.07c1.5,1.13,3,2.36,4.55,3.65l.31.3.36.18a31.56,31.56,0,0,0,26.25,3.33,31.36,31.36,0,0,0,3.39,26.33l.15.25.19.21a3.87,3.87,0,0,1,.35.45l.34.43,2.31,2.87V288l.88.91.73,1,.91,1.2,1.16,1.55c.09.12.17.23.25.32.33.47.7,1,1.06,1.46l.4.55c.2.27.4.54.59.82l.08.12c.52.7,1,1.42,1.52,2.15l.94,1.34c.35.51.71,1.06,1.08,1.61s.75,1.14,1.14,1.71l.66,1c.32.48.64,1,.93,1.45l.14.23.18.21a31.36,31.36,0,0,0,24,11.32,31.54,31.54,0,0,0-5.89,18.43,32.57,32.57,0,0,0,.82,7.19l.06.24.09.24c.41,1.05.82,2.14,1.23,3.23.18.52.37,1,.56,1.52s.35.92.52,1.39l.09.25c.6,1.72,1.16,3.38,1.71,5,.92,2.82,1.78,5.63,2.61,8.57.15.49.29,1,.44,1.49.28.95.56,1.9.8,2.84.42,1.58.79,3.16,1.17,4.78.48,1.88.88,3.59,1.25,5.31.22,1,.41,2,.6,2.95.11.57.22,1.13.34,1.69l.14.77c.29,1.58.58,3.15.85,4.73.08.57.18,1.16.27,1.76L605.1,383.7A185.1,185.1,0,0,0,461.92,242.39l-4.94-1,19.29,125.42L427.5,415.55Z"
        />
        <path
          class="cls-14"
          d="M431,95.53,447.57,203.2l.79,5.19,5.21.68a208.62,208.62,0,0,1,21.16,4l3.81.91c3.37.86,6.76,1.81,10.11,2.84.35.13.65.21.87.27,2.61.85,5.29,1.72,7.82,2.66l.11,0,.12,0,.18.06c.77.29,1.54.58,2.27.87h.05l1.87.7,1.45.53a7.5,7.5,0,0,0,1.21.41h0a35.25,35.25,0,0,0,23.42-2.6,34.87,34.87,0,0,0,12.07,20.79l.34.29.38.24c.69.44,1.38.89,2.08,1.36h0l1.58,1,1,.68.55.36c1.3.85,2.59,1.79,4,2.79l0,0h0l.71.51.76.55.63.45.61.44c.15.13.31.25.47.37l.17.13,0,0,1.34,1,1,.78c.41.3.79.59,1.1.84l.09.07.08.06c1.47,1.12,3,2.32,4.47,3.59l0,0,.22.22.67.43a35,35,0,0,0,18.65,5.37,34.53,34.53,0,0,0,4.89-.34,34.93,34.93,0,0,0,5.06,23.57l.3.47.38.43c.07.08.13.17.2.26l.4.52.13.15,2.71,3.36.21.29.79,1,.91,1.2.66.89.45.59a4.46,4.46,0,0,0,.33.43l1,1.36c.15.19.29.39.44.59l.49.68.08.12.08.12c.5.68,1,1.38,1.48,2.09.3.44.61.88.93,1.33s.69,1,1,1.55.76,1.15,1.14,1.71l.66,1c.32.47.61.91.85,1.31l.28.46.35.42a34.79,34.79,0,0,0,20.86,12.06,35.15,35.15,0,0,0-3.55,15.45,36,36,0,0,0,.91,8l.12.49.18.47c.4,1.05.81,2.12,1.21,3.2h0c.19.52.38,1,.58,1.55s.31.82.46,1.24l0,.05.06.19,0,.06,0,.07c.57,1.61,1.12,3.28,1.66,4.89.91,2.8,1.76,5.56,2.58,8.45.14.5.29,1,.44,1.51.28,1,.55,1.87.78,2.74.42,1.61.8,3.21,1.14,4.7l0,.06,0,.07c.45,1.77.84,3.44,1.19,5.11v.1c.21.89.39,1.82.58,2.81.11.54.21,1.09.32,1.63l.14.72c.1.58.21,1.15.31,1.71L608,380.61A188.61,188.61,0,0,0,462.63,239l-9.88-2.05,1.54,10,18.25,118.68L431,407.1V95.53M424,4V424l56-56L461.21,245.81a182.16,182.16,0,0,1,141,141l43.72,6.75h0c-.07-.56-.17-1.12-.24-1.68-.24-1.61-.53-3.22-.77-4.83-.31-1.89-.66-3.74-1-5.64-.32-1.53-.6-3.11-.95-4.65-.38-1.82-.8-3.61-1.26-5.39s-.77-3.26-1.19-4.87-.84-2.94-1.26-4.41c-.84-2.94-1.71-5.81-2.66-8.71-.56-1.68-1.12-3.36-1.72-5,0-.11-.07-.21-.1-.32-.35-1-.73-1.92-1.09-2.9s-.83-2.24-1.26-3.32a28.65,28.65,0,0,1-.73-6.41,28,28,0,0,1,15.23-25,28,28,0,0,1-34.16-7c-.53-.88-1.13-1.72-1.68-2.59-.78-1.12-1.51-2.28-2.28-3.4s-1.64-2.38-2.48-3.53c-.36-.53-.74-1-1.09-1.5l-1.12-1.54c0-.07-.1-.11-.14-.18L602.71,289,601,286.66a.09.09,0,0,1,0-.07l-3.08-3.82c-.27-.35-.52-.69-.8-1A28,28,0,0,1,601,247,28,28,0,0,1,566.24,251s-.07,0-.11-.07c-1.57-1.33-3.18-2.63-4.79-3.85-.73-.6-1.54-1.16-2.31-1.75L557.35,244c-.07,0-.11-.11-.18-.14-.49-.38-1-.74-1.54-1.12l-1.5-1.09c-1.4-1-2.8-2-4.24-3,0,0,0,0,0,0s-.24-.17-.39-.24c-.38-.25-.76-.49-1.11-.74-1.27-.84-2.52-1.68-3.78-2.48a28,28,0,0,1-7-34.2,28.06,28.06,0,0,1-31.4,14.57.11.11,0,0,1-.07,0l-3.56-1.33c-.81-.32-1.65-.63-2.49-1l-.31-.1c-2.73-1-5.54-1.93-8.33-2.83a1.9,1.9,0,0,1-.46-.15q-6.62-2-13.37-3.67c-.42-.11-.84-.25-1.26-.35v.07a216.8,216.8,0,0,0-21.87-4.1L424,4ZM647,310.39l-.07,0,.07,0Z"
        />
        <path
          class="cls-13"
          d="M464.3,605.1A185.1,185.1,0,0,0,605.61,461.88l1-4.94L481.22,476.27,432.45,427.5H704a31.33,31.33,0,0,0,29.22-19.73A31.83,31.83,0,0,0,735.5,396a30.06,30.06,0,0,0-.36-4.62L832.94,424l-97.8,32.62a30.15,30.15,0,0,0,.36-4.62,30.64,30.64,0,0,0-2.3-11.8l-1-2.54L645.67,451h-2.8l-.47,3a216.09,216.09,0,0,1-4,21.55l-.94,3.93c-.88,3.44-1.85,6.9-2.91,10.31a5.43,5.43,0,0,0-.21.71c-.89,2.72-1.78,5.47-2.75,8.06l-.17.48c-.28.77-.57,1.53-.86,2.27-.22.57-.42,1.12-.62,1.66s-.3.83-.45,1.23l-.5.5,0,1.08A31.44,31.44,0,0,0,634.08,531a31.46,31.46,0,0,0-24,11.29l-.14.17-.12.19c-.57.9-1.17,1.8-1.75,2.69l-.68,1h0l-.15.24c-.18.26-.34.51-.5.76l-.38.58c-.9,1.36-1.86,2.68-2.87,4.08L602,554.2c-.19.27-.38.55-.59.81l0,0-1.42,1.89c-.28.36-.58.76-.87,1.15s-.56.75-.85,1.12c-1.15,1.51-2.38,3-3.66,4.57l-.3.29-.19.37a31.33,31.33,0,0,0-3.34,26.29,31.61,31.61,0,0,0-26.32,3.36l-.25.15-.21.19-.44.35-.44.34-2.87,2.31H560l-.91.88-1,.73-1.2.91-1.55,1.16-.31.24c-.44.31-.9.65-1.35,1,0,0-.47.33-.66.48s-.54.4-.83.59l-.12.08c-1.31.95-2.4,1.71-3.43,2.39l-.11.08c-.8.57-1.65,1.12-2.49,1.67l-.76.49c-.89.61-1.71,1.15-2.56,1.7l-.18.11-.17.15a31.31,31.31,0,0,0-11.36,24,31.49,31.49,0,0,0-18.39-5.87,32.57,32.57,0,0,0-7.19.82l-.24.06-.24.09c-1.07.42-2.18.83-3.29,1.25-.46.16-1,.35-1.46.54l-1.39.52-.25.09c-1.72.6-3.38,1.16-5,1.71-2.83.92-5.64,1.78-8.57,2.61l-1.49.44c-.94.28-1.89.56-2.84.8-1.58.42-3.16.79-4.78,1.17-1.87.48-3.59.88-5.31,1.25-1,.22-2,.41-2.95.6l-1.69.34-.7.13c-1.61.29-3.19.59-4.81.86l-1.71.27Z"
        />
        <path
          class="cls-14"
          d="M739,396.36,821.88,424,739,451.64a34.44,34.44,0,0,0-2.56-12.78l-2.1-5.08-5.43.84L645.4,447.45h-5.67l-.8,6.08a209.7,209.7,0,0,1-4,21.2l-.92,3.84c-.85,3.36-1.8,6.74-2.83,10.08-.13.35-.21.65-.27.87-.88,2.72-1.72,5.3-2.66,7.82l0,.11,0,.11-.06.19c-.29.77-.58,1.54-.87,2.27v.05c-.21.56-.42,1.13-.62,1.69s-.39,1.07-.59,1.58a8.14,8.14,0,0,0-.43,1.26h0a34.92,34.92,0,0,0,2.62,23.47,34.84,34.84,0,0,0-20.81,12l-.29.34-.24.38c-.45.69-.9,1.39-1.36,2.08h0l-1.17,1.77-.55.84-.36.54c-.85,1.31-1.79,2.6-2.79,4l0,0v0l-.51.71-.55.76c-.16.21-.31.43-.46.64s-.25.35-.38.52l-.05.06-.3.4v0l-.19.24,0,0-1,1.35-.9,1.19-.82,1.08,0,0v0c-1.12,1.47-2.32,3-3.59,4.47l0,.06-.22.22-.42.66a34.9,34.9,0,0,0-5.06,23.58,34.67,34.67,0,0,0-4.9-.34,35.05,35.05,0,0,0-18.64,5.36l-.47.3-.43.38-.25.2-.53.4c-1.16.94-2.32,1.87-3.5,2.84a3.06,3.06,0,0,0-.29.21l-1.06.8-1.19.9-1,.73-.51.38a4.46,4.46,0,0,0-.43.33c-.43.3-.88.63-1.35,1l-.6.44-.68.49-.12.08-.12.08c-1.26.92-2.31,1.65-3.29,2.3l-.11.07-.1.07c-.74.52-1.54,1-2.39,1.6l-.76.5-.05,0,0,0c-.92.63-1.69,1.14-2.42,1.61l-.37.24-.34.28A34.86,34.86,0,0,0,528,628.21a35.22,35.22,0,0,0-15.4-3.52,36,36,0,0,0-8,.91l-.49.12-.47.18-3.21,1.21-1.54.58-1.24.46-.24.08-.06,0-.07,0c-1.59.56-3.17,1.09-4.88,1.66-2.81.91-5.57,1.76-8.46,2.58l-1.52.44c-1,.28-1.86.55-2.73.78-1.6.41-3.2.8-4.7,1.14l-.06,0-.07,0c-1.77.45-3.44.84-5.11,1.19h-.1c-.89.21-1.82.39-2.81.58l-1.63.32-.69.13-1.7.32L467.4,608A188.65,188.65,0,0,0,609,462.59l2.05-9.87-10,1.53L482.44,472.54,440.9,431H704a35,35,0,0,0,35-34.64M730.14,386a27.84,27.84,0,0,1-.17,20.44A28,28,0,0,1,704,424H424l56,56,122.18-18.83a182.18,182.18,0,0,1-141,141l-6.71,43.75c.56-.06,1.08-.17,1.64-.24,1.61-.25,3.22-.53,4.83-.77,1.89-.32,3.74-.67,5.63-1,1.54-.31,3.12-.59,4.66-.94,1.82-.38,3.61-.81,5.39-1.26s3.25-.77,4.87-1.19c1.46-.39,2.94-.84,4.41-1.26,2.94-.84,5.8-1.71,8.71-2.66,1.68-.56,3.36-1.12,5-1.72l.32-.1c1-.35,1.92-.73,2.9-1.09s2.24-.84,3.32-1.26a28.65,28.65,0,0,1,6.41-.73,28,28,0,0,1,25,15.23,28,28,0,0,1,7-34.17c.88-.56,1.72-1.12,2.59-1.71,1.12-.74,2.27-1.47,3.36-2.24s2.41-1.65,3.57-2.49c.53-.35,1-.73,1.5-1.08l1.54-1.12c.07,0,.11-.11.18-.14l1.68-1.26,2.31-1.75a.09.09,0,0,1,.07,0l3.81-3.08c.36-.28.7-.52,1-.8A28,28,0,0,1,601,601,28,28,0,0,1,597,566.24s0-.07.07-.11c1.33-1.57,2.63-3.18,3.85-4.79l1.75-2.31,1.26-1.68a.54.54,0,0,0,.14-.18c.38-.49.73-1,1.12-1.54l1.09-1.5c1-1.4,2-2.8,3-4.24,0,0,0,0,0,0s.17-.24.24-.39c.25-.38.49-.77.77-1.15.8-1.23,1.65-2.49,2.45-3.74a28,28,0,0,1,34.2-7,28,28,0,0,1-14.57-31.4.11.11,0,0,1,0-.07c.45-1.15.88-2.38,1.33-3.56.32-.81.63-1.65,1-2.49,0-.11.06-.21.1-.32,1-2.73,1.92-5.52,2.83-8.33a2,2,0,0,1,.15-.45q2-6.62,3.67-13.37c.1-.42.25-.84.35-1.26h-.07a217.58,217.58,0,0,0,4.1-21.91h.06l84-12.91A27.27,27.27,0,0,1,732,452a28.34,28.34,0,0,1-1.86,10L844,424,730.14,386ZM537.58,646.92l0,.06,0-.06Z"
        />
        <path
          class="cls-10"
          d="M749.34,433.43A48.13,48.13,0,0,0,744.2,424a48.13,48.13,0,0,0,5.14-9.43L777.61,424Z"
        />
        <path
          class="cls-14"
          d="M751.24,418.89,766.55,424l-15.31,5.11A51.94,51.94,0,0,0,748.4,424a51.94,51.94,0,0,0,2.84-5.11m-4-8.72A45,45,0,0,1,739.84,424a44.83,44.83,0,0,1,7.38,13.83L788.67,424l-41.45-13.83Z"
        />
      </g>
    </g>
  </g>
</svg>
