<svg xmlns="http://www.w3.org/2000/svg" viewBox="0 0 156 24"><defs><style>.cls-1{fill:#aaaab3;}</style></defs><g id="Layer_2" data-name="Layer 2"><g id="Layer_1-2" data-name="Layer 1"><g id="Finished"><g id="Layer_6" data-name="Layer 6"><g id="Products"><path class="cls-1" d="M40,0V24H56V0ZM52,20H44V4h8Z"/><path class="cls-1" d="M92,0V20H84V0H80V24H96V0Z"/><polygon class="cls-1" points="140 6 140 0 156 0 156 8 152 8 152 4 144 4 156 18 156 24 140 24 140 16 144 16 144 20 152 20 140 6"/><polygon class="cls-1" points="120 0 120 4 126 4 126 24 130 24 130 4 136 4 136 0 120 0"/><polygon class="cls-1" points="116 24 116 20 104 20 104 4 116 4 116 0 100 0 100 24 116 24"/><path class="cls-1" d="M36,0H20V24h4V14h2l6,6v4h4V18l-4-4h4ZM32,10H24V4h8Z"/><path class="cls-1" d="M0,0V24H4V14H16V0ZM12,10H4V4h8Z"/><path class="cls-1" d="M60,0V24H72l4-4V4L72,0ZM70,20H64V4h6l2,2V18Z"/></g></g></g></g></g></svg>