<svg xmlns="http://www.w3.org/2000/svg" viewBox="0 0 320.5 320"><defs><style>.cls-1,.cls-2{fill:#29292e;}.cls-2{stroke:#29292e;stroke-miterlimit:10;}.cls-3{fill:#2e2e33;}</style></defs><title>Texture</title><g id="Layer_2" data-name="Layer 2"><g id="Layer_1-2" data-name="Layer 1"><polygon class="cls-1" points="320 0 160 160 176 132.28 252.38 0 320 0"/><polygon class="cls-1" points="202.88 0 168.28 129.08 160 160 160 0 202.88 0"/><polygon class="cls-1" points="160 160 132.28 144 0 67.62 0 0 160 160"/><polygon class="cls-1" points="160 160 0 160 0 117.12 129.08 151.72 160 160"/><polygon class="cls-1" points="160 160 144 187.72 67.62 320 0 320 160 160"/><polygon class="cls-1" points="160 160 160 320 117.12 320 151.72 190.92 160 160"/><polygon class="cls-1" points="320 252.38 320 320 160 160 187.72 176 320 252.38"/><polygon class="cls-2" points="320 160 320 202.88 190.92 168.28 160 160 320 160"/><polygon class="cls-1" points="160 160 144 132.28 67.62 0 117.12 0 151.72 129.08 160 160"/><polygon class="cls-1" points="160 160 132.28 176 0 252.38 0 202.88 129.08 168.28 160 160"/><polygon class="cls-1" points="252.38 320 202.88 320 168.28 190.92 160 160 176 187.72 252.38 320"/><polygon class="cls-1" points="320 67.62 320 117.12 190.92 151.72 160 160 187.72 144 320 67.62"/><polygon class="cls-3" points="252.38 0 176 132.28 160 160 168.28 129.08 202.88 0 252.38 0"/><polygon class="cls-3" points="160 160 129.08 151.72 0 117.12 0 67.62 132.28 144 160 160"/><polygon class="cls-3" points="160 160 151.72 190.92 117.12 320 67.62 320 144 187.72 160 160"/><polygon class="cls-3" points="320 202.88 320 252.38 187.72 176 160 160 190.92 168.28 320 202.88"/><polygon class="cls-3" points="160 0 160 160 151.72 129.08 117.12 0 160 0"/><polygon class="cls-3" points="160 160 0 0 67.62 0 144 132.28 160 160"/><polygon class="cls-3" points="160 160 129.08 168.28 0 202.88 0 160 160 160"/><polygon class="cls-3" points="160 160 0 320 0 252.38 132.28 176 160 160"/><polygon class="cls-3" points="202.88 320 160 320 160 160 168.28 190.92 202.88 320"/><polygon class="cls-3" points="320 320 252.38 320 176 187.72 160 160 320 320"/><polygon class="cls-3" points="320 117.12 320 160 160 160 190.92 151.72 320 117.12"/><polygon class="cls-3" points="320 0 320 67.62 187.72 144 160 160 320 0"/><circle class="cls-3" cx="160" cy="160" r="24"/></g></g></svg>