<svg xmlns="http://www.w3.org/2000/svg" viewBox="0 0 192 178"><defs><style>.cls-1{fill:#e5b552;}.cls-2{fill:#aaaab3;}.cls-3{fill:none;}</style></defs><title>Back Logo</title><g id="Layer_2" data-name="Layer 2"><g id="Layer_1-2" data-name="Layer 1"><g id="Finished"><g id="Layer_6" data-name="Layer 6"><g id="Layer_1-2-2" data-name="Layer 1-2"><g id="Layer_6-2" data-name="Layer 6"><path class="cls-1" d="M192,89a95.83,95.83,0,0,1-5.47,32h-7.46a89.31,89.31,0,0,0,0-64h7.46A95.83,95.83,0,0,1,192,89Z"/><path class="cls-2" d="M7,89a88.74,88.74,0,0,0,5.93,32H5.47a96.38,96.38,0,0,1,0-64h7.46A88.74,88.74,0,0,0,7,89Z"/><path class="cls-3" d="M185,89a88.93,88.93,0,1,1-5.93-32A88.74,88.74,0,0,1,185,89Z"/></g></g></g></g></g></g></svg>