<svg xmlns="http://www.w3.org/2000/svg" viewBox="0 0 256 289.03"><defs><style>.cls-1{fill:#e5b552;}</style></defs><title>Kick</title><g id="Layer_2" data-name="Layer 2"><g id="Layer_1-2" data-name="Layer 1"><g id="Kick"><path class="cls-1" d="M209.3,144.58l26.28-26.1a69.15,69.15,0,0,0,0-98.13,70.29,70.29,0,0,0-98.79,0l-9.56,9.5A69.82,69.82,0,0,0,69.81,0C31.27,0,0,31.06,0,69.35V219.69C0,258,31.27,289,69.81,289a69.82,69.82,0,0,0,57.42-29.85l9.56,9.5a70.28,70.28,0,0,0,98.79,0,69.15,69.15,0,0,0,0-98.13l-26.28-26Z"/></g></g></g></svg>