<svg xmlns="http://www.w3.org/2000/svg" xmlns:xlink="http://www.w3.org/1999/xlink" viewBox="0 0 840 840"><defs><style>.cls-1{fill:none;}.cls-2{fill:#e5b552;}.cls-3{fill:#ffe3aa;}.cls-4{fill:#f5c86c;}.cls-5{fill:#aaaab3;}.cls-6{fill:#dfdfea;}.cls-7{fill:#c2c2cc;}.cls-8{fill:url(#New_Pattern_Swatch_4);}.cls-9{fill:#626267;}.cls-10,.cls-11{fill:url(#New_Pattern_Swatch_4-5);}.cls-11{stroke:#626267;}.cls-11,.cls-12{stroke-miterlimit:20;stroke-width:7px;}.cls-12{stroke:#996e31;}.cls-12,.cls-13{fill:url(#New_Pattern_Swatch_1);}.cls-14{fill:#996e31;}</style><pattern id="New_Pattern_Swatch_4" data-name="New Pattern Swatch 4" width="288" height="288" patternTransform="translate(-41 -278.55) scale(3.5)" patternUnits="userSpaceOnUse" viewBox="0 0 288 288"><rect class="cls-1" width="288" height="288"/><polygon class="cls-5" points="128 0 0 0 0 256 0 288 288 288 288 0 128 0"/><polygon class="cls-6" points="176 0 32 288 24 288 168 0 176 0"/><polygon class="cls-7" points="168 0 24 288 8 288 152 0 168 0"/><polygon class="cls-6" points="32 0 0 64 0 48 24 0 32 0"/><polygon class="cls-7" points="24 0 0 48 0 16 8 0 24 0"/><polygon class="cls-6" points="288 48 288 64 176 288 168 288 288 48"/><polygon class="cls-7" points="288 16 288 48 168 288 152 288 288 16"/><polygon class="cls-7" points="176 288 208 288 288 128 288 64 176 288"/><polygon class="cls-7" points="32 288 64 288 208 0 176 0 32 288"/><polygon class="cls-7" points="64 0 0 128 0 64 32 0 64 0"/></pattern><pattern id="New_Pattern_Swatch_4-5" data-name="New Pattern Swatch 4" width="288" height="288" patternTransform="translate(-37.5 -275.5) scale(3.5)" patternUnits="userSpaceOnUse" viewBox="0 0 288 288"><rect class="cls-1" width="288" height="288"/><polygon class="cls-5" points="128 0 0 0 0 256 0 288 288 288 288 0 128 0"/><polygon class="cls-6" points="176 0 32 288 24 288 168 0 176 0"/><polygon class="cls-7" points="168 0 24 288 8 288 152 0 168 0"/><polygon class="cls-6" points="32 0 0 64 0 48 24 0 32 0"/><polygon class="cls-7" points="24 0 0 48 0 16 8 0 24 0"/><polygon class="cls-6" points="288 48 288 64 176 288 168 288 288 48"/><polygon class="cls-7" points="288 16 288 48 168 288 152 288 288 16"/><polygon class="cls-7" points="176 288 208 288 288 128 288 64 176 288"/><polygon class="cls-7" points="32 288 64 288 208 0 176 0 32 288"/><polygon class="cls-7" points="64 0 0 128 0 64 32 0 64 0"/></pattern><pattern id="New_Pattern_Swatch_1" data-name="New Pattern Swatch 1" width="288" height="288" patternTransform="translate(-37.5 -275.5) scale(3.5)" patternUnits="userSpaceOnUse" viewBox="0 0 288 288"><rect class="cls-1" width="288" height="288"/><rect class="cls-2" width="288" height="288"/><polygon class="cls-3" points="176 0 32 288 24 288 168 0 176 0"/><polygon class="cls-4" points="168 0 24 288 8 288 152 0 168 0"/><polygon class="cls-3" points="32 0 0 64 0 48 24 0 32 0"/><polygon class="cls-4" points="24 0 0 48 0 16 8 0 24 0"/><polygon class="cls-3" points="288 48 288 64 176 288 168 288 288 48"/><polygon class="cls-4" points="288 16 288 48 168 288 152 288 288 16"/><polygon class="cls-4" points="176 288 208 288 288 128 288 64 176 288"/><polygon class="cls-4" points="32 288 64 288 208 0 176 0 32 288"/><polygon class="cls-4" points="64 0 0 128 0 64 32 0 64 0"/></pattern></defs><title>LogoSimple</title><g id="Layer_2" data-name="Layer 2"><g id="Layer_1-2" data-name="Layer 1"><g id="For_Insta" data-name="For Insta"><circle class="cls-8" cx="308" cy="276.5" r="35.88"/><path class="cls-9" d="M311.5,252.39a63.45,63.45,0,0,0,27.15,27.16A63.43,63.43,0,0,0,311.5,306.7a63.43,63.43,0,0,0-27.15-27.15,63.45,63.45,0,0,0,27.15-27.16m0-28.84a56,56,0,0,1-56,56,56,56,0,0,1,56,56,56,56,0,0,1,56-56,56,56,0,0,1-56-56Z" transform="translate(-3.5 -3.05)"/><circle class="cls-8" cx="336" cy="185.5" r="24.5"/><path class="cls-9" d="M339.5,171.77a49.52,49.52,0,0,0,16.78,16.78,49.43,49.43,0,0,0-16.78,16.78,49.43,49.43,0,0,0-16.78-16.78,49.52,49.52,0,0,0,16.78-16.78m0-25.22a42,42,0,0,1-42,42,42,42,0,0,1,42,42,42,42,0,0,1,42-42,42,42,0,0,1-42-42Z" transform="translate(-3.5 -3.05)"/><path class="cls-10" d="M7.79,397.62A414,414,0,0,1,30.11,286c1.08-3.1,2.37-6.76,3.81-10.4l0-.15c.43-1.25.92-2.51,1.45-3.83l.42-1.08c.83-2.09,1.68-4.25,2.56-6.34,1.42-3.49,2.92-6.94,4.32-10.15,2.41-5.4,5-10.83,7.59-16.12,1.32-2.66,2.74-5.43,4.48-8.7,1.44-2.77,3-5.52,4.42-8.18a422.29,422.29,0,0,1,24.67-39.11c1.85-2.61,3.77-5.23,5.42-7.47,3.56-4.76,7.38-9.65,11.34-14.49,1.71-2.1,3.73-4.58,5.89-7.07s4.19-4.88,6-7l1.48-1.64c1.56-1.72,3.12-3.45,4.73-5.16,2.09-2.27,4.22-4.5,6.34-6.66,4.63-4.73,9.08-9.1,13.63-13.38s8.69-8,12.76-11.44a416.06,416.06,0,0,1,37-28.51c2.54-1.74,5.16-3.47,7.69-5.15,3-2,5.48-3.52,7.78-4.94,2.59-1.63,5.25-3.24,7.91-4.79s5.43-3.17,8-4.62c2.95-1.66,5.61-3.13,8.16-4.48,7.82-4.18,16.25-8.3,25.06-12.25,2.78-1.25,5.09-2.27,7.26-3.2,1.43-.61,2.86-1.19,4.29-1.77l.14-.06c1.87-.81,3.91-1.63,6.43-2.6,2.68-1.07,5.37-2.07,7.88-3,3.27-1.21,6-2.21,8.83-3.16s5.93-2,8.92-2.95c2.66-.85,5.45-1.71,9.08-2.78,1.89-.55,3.79-1.1,5.73-1.62,4.5-1.29,9.08-2.44,12.57-3.31,2-.48,4.09-1,6.14-1.41C335,16,339,15.09,342.88,14.36c3.15-.63,6.37-1.19,9.48-1.74,2.31-.38,4.57-.76,6.87-1.11,2.13-.34,4.29-.69,6.42-.92l.14,0c2.5-.39,4.68-.68,6.67-.89,2.59-.35,5.3-.66,8.61-1l2.09-.2c-88.55,98.32-143.91,224.07-156.37,355.4l-92.5,14.25Zm164.34-171a470.52,470.52,0,0,0-38.36,132.87l-.63,4.64L214,351.69l.31-2.64A633.93,633.93,0,0,1,341.09,37.27L354.33,20l-18,12.24a471,471,0,0,0-122.23,121L213,151.89c-.57-.68-1.21-1.37-2-2.11-.49-.49-1-1-1.62-1.56a19.36,19.36,0,0,0-1.63-1.43c-.54-.47-1.1-1-1.74-1.43a21.39,21.39,0,0,0-1.86-1.3,31.53,31.53,0,0,0-2.94-1.89A45.51,45.51,0,1,0,155.75,221c.93.54,1.83,1,2.71,1.43s1.9.91,2.82,1.27c.73.3,1.58.65,2.51.94a26.71,26.71,0,0,0,3.32,1,18.7,18.7,0,0,0,1.91.46A30.66,30.66,0,0,0,172.13,226.64Zm6.36-6.58h-1l-1,0a36.13,36.13,0,0,1-6.42-2.91,35,35,0,1,1,35-60.6,34.53,34.53,0,0,1,5.64,4l.42.67a38.5,38.5,0,0,1-32.67,58.85Z" transform="translate(-3.5 -3.05)"/><path class="cls-9" d="M374.54,12.94c-84.93,97.16-138.24,219.83-151,347.91l-89.81,13.84L11.57,393.5A410.48,410.48,0,0,1,33.42,287.09c1.07-3.06,2.34-6.68,3.75-10.26l.06-.15.05-.15c.41-1.18.89-2.4,1.4-3.69l.41-1c.82-2.08,1.66-4.23,2.53-6.28l0,0,0,0c1.39-3.4,2.87-6.83,4.25-10,2.4-5.38,4.93-10.77,7.55-16,1.3-2.63,2.7-5.37,4.42-8.6v0l0,0c1.39-2.68,2.9-5.42,4.35-8a417.78,417.78,0,0,1,24.48-38.8c1.83-2.58,3.74-5.18,5.35-7.38,3.54-4.73,7.32-9.57,11.28-14.41,1.67-2.06,3.68-4.51,5.8-7l0,0,0,0c2.18-2.56,4.13-4.8,6-6.86l1.46-1.62c1.53-1.69,3.12-3.44,4.7-5.13l0,0,0,0c2-2.21,4.14-4.41,6.27-6.57,4.57-4.69,9-9,13.49-13.25s8.62-7.91,12.68-11.38A414,414,0,0,1,190.51,82c2.5-1.72,5.1-3.44,7.62-5.11,3-1.93,5.44-3.49,7.75-4.92,2.55-1.6,5.17-3.19,7.83-4.74s5.37-3.14,7.95-4.58c2.9-1.64,5.54-3.08,8.09-4.44,7.74-4.13,16.1-8.22,24.84-12.14,2.77-1.25,5.06-2.25,7.2-3.17,1.4-.6,2.79-1.16,4.28-1.77l.09,0,.08,0c1.81-.79,3.81-1.6,6.28-2.54l.05,0,.05,0c2.44-1,4.86-1.88,7.74-2.94,3.25-1.2,6-2.19,8.76-3.13s5.87-2,8.88-2.93c2.59-.84,5.36-1.69,9-2.76,1.93-.56,3.75-1.09,5.62-1.59h.06l.05,0c4.4-1.26,8.92-2.4,12.37-3.26,2.48-.58,4.36-1,6.08-1.4h.1c4.46-1.05,8.48-1.91,12.27-2.63h.06c3.07-.62,6.27-1.18,9.33-1.72l1.28-.21-19.84,13.5A474.5,474.5,0,0,0,213.8,147.56l-.25-.26c-.48-.48-1.07-1.07-1.72-1.64a21,21,0,0,0-1.77-1.56c-.55-.48-1.17-1-1.88-1.54s-1.22-.92-2-1.4c-1.09-.8-2.16-1.43-3.11-2l0,0,0,0A49,49,0,0,0,154,224c1,.61,2,1.11,2.92,1.55,1.06.53,2.06,1,3.06,1.38.8.33,1.69.69,2.7,1a30.64,30.64,0,0,0,3.57,1.06l.9.24A473.85,473.85,0,0,0,130.3,359.05l-1.25,9.27,9.25-1.42,73.57-11.34,5.27-.81.62-5.3a625.56,625.56,0,0,1,23.62-111.62l2.07.23-1.94-.63q8.07-26,18.4-51.44A632.81,632.81,0,0,1,343.86,39.4L363,14.47c1-.16,2-.29,3-.4l.15,0,.14,0c2.45-.38,4.58-.66,6.51-.87H373l1.52-.2M187.6,155.31a31.58,31.58,0,0,1,15.78,4.25,30.76,30.76,0,0,1,4.68,3.29l.13.21a35,35,0,0,1-29.7,53.5h-1.34a32.94,32.94,0,0,1-5.3-2.45,31.5,31.5,0,0,1,15.75-58.78M391.79,4.24l-1.29.1c-.5,0-.95.07-1.44.14-2.77.21-5.56.46-8.33.74s-5.77.59-8.65,1c-2.27.24-4.54.56-6.82.91s-4.38.59-6.55.94c-2.34.35-4.65.74-7,1.12-3.18.56-6.37,1.12-9.52,1.75-4.23.81-8.4,1.72-12.56,2.7-2.07.45-4.17.94-6.24,1.43-4.23,1.05-8.47,2.14-12.63,3.33-2,.52-3.88,1.08-5.81,1.64-3.08.91-6.09,1.82-9.13,2.8s-6,2-9,3-6,2.1-8.93,3.18c-2.65,1-5.28,2-7.9,3-2.21.84-4.41,1.72-6.58,2.66-1.48.6-2.95,1.19-4.41,1.82-2.46,1.05-4.91,2.14-7.32,3.22q-12.87,5.78-25.27,12.36c-2.77,1.47-5.49,3-8.23,4.51s-5.42,3.08-8.08,4.66-5.35,3.18-8,4.83-5.29,3.32-7.87,5-5.18,3.43-7.74,5.18A419.77,419.77,0,0,0,149.24,105c-4.37,3.74-8.68,7.63-12.88,11.55-4.69,4.41-9.24,8.89-13.72,13.47q-3.26,3.31-6.4,6.72c-2.14,2.28-4.2,4.59-6.27,6.86s-4.1,4.66-6.09,7-4,4.73-5.95,7.14c-3.92,4.8-7.73,9.66-11.44,14.63-1.86,2.52-3.68,5-5.46,7.53a422,422,0,0,0-24.89,39.44c-1.51,2.73-3,5.46-4.44,8.23s-3.05,5.81-4.52,8.78q-4,8-7.67,16.28c-1.47,3.36-2.93,6.75-4.34,10.18-1.05,2.49-2,5-3,7.49-.53,1.33-1.05,2.66-1.51,4-1.37,3.47-2.62,7-3.85,10.54A417.32,417.32,0,0,0,4.06,401.73l130.76-20.12L230,366.94A613.73,613.73,0,0,1,391.79,4.24ZM178.49,223.56a42,42,0,0,0,35.64-64.2A470.12,470.12,0,0,1,338.31,35.14,639.57,639.57,0,0,0,210.8,348.64L137.24,360a466.93,466.93,0,0,1,40.18-136.43Zm-2.58-.05c-.32,0-.63,0-.95-.07l-1.85-.21a28.16,28.16,0,0,1-3.36-.59c-.59-.11-1.16-.25-1.75-.42a25.3,25.3,0,0,1-3.08-.91c-.8-.25-1.58-.56-2.34-.88s-1.72-.73-2.56-1.15-1.68-.84-2.52-1.33a42,42,0,1,1,42-72.77,26.58,26.58,0,0,1,2.76,1.79,18.17,18.17,0,0,1,1.72,1.19c.56.42,1.09.87,1.61,1.33a15.42,15.42,0,0,1,1.47,1.29c.52.46,1.05,1,1.54,1.47s1.19,1.23,1.75,1.89,1.08,1.33,1.61,2,1,1.43,1.54,2.17a38.51,38.51,0,1,0-45.15,61.84,40.23,40.23,0,0,0,7.56,3.36Z" transform="translate(-3.5 -3.05)"/><path class="cls-10" d="M383.15,837.6l-2.42-.24c-3.34-.35-6.7-.73-10-1.14-7.95-1-15.18-2.12-22.09-3.4-2.48-.46-4.91-.91-7.34-1.39-6.22-1.22-12.58-2.66-19.46-4.41-3.6-.89-6.52-1.66-9.21-2.42C306.32,822.84,300,821,293.93,819s-12.66-4.29-19.18-6.8c-3-1.14-5.92-2.31-8.14-3.2-2.83-1.15-5.74-2.38-8.87-3.75s-6.05-2.67-8.82-4c-2.58-1.2-5.63-2.63-8.67-4.13-2.82-1.39-5.73-2.83-8.55-4.33-3.24-1.7-5.94-3.13-8.51-4.53-3.1-1.72-5.85-3.27-8.36-4.72-3-1.74-5.67-3.34-8.17-4.88s-5-3.07-8.15-5.08c-2.73-1.75-5.5-3.6-8.17-5.39l-.09-.06c-4.44-3-9.11-6.33-14.68-10.42l-.14-.09a2.92,2.92,0,0,1-.29-.23l-.15-.12c-1.87-1.39-3.8-2.83-5.68-4.29-2.51-1.93-5.1-4-8.41-6.68-2.78-2.26-5.55-4.57-8.22-6.87-4.82-4.12-9.58-8.39-14.17-12.7s-9-8.66-13.57-13.33c-2.47-2.55-4.61-4.81-6.56-6.9-4.43-4.8-8.69-9.59-12.64-14.24-2-2.37-4.07-4.83-6.06-7.31s-4-5-5.94-7.5l-.41-.54c-1.76-2.3-3.58-4.69-5.31-7.06-4-5.5-7.63-10.61-11-15.63-3.24-4.83-6.6-10.1-10.28-16.12-3.15-5.2-6.26-10.64-9.5-16.61-3-5.5-5.94-11.25-8.79-17.11-1.26-2.56-2.56-5.32-4.09-8.7C41.75,590,39.19,584.06,36.79,578c-1.18-2.89-2.38-6-3.79-9.77-2.11-5.71-4.15-11.57-6.05-17.4-.89-2.84-1.95-6.23-3-9.68-1.78-6-3.43-12.14-5-18.61-2.69-10.95-4.91-22-6.59-32.77-.35-1.92-.66-3.92-1-6.22A419,419,0,0,1,7,427.13l125.87,19.36,92.26,14.2A619.59,619.59,0,0,0,383.15,837.6ZM260.62,749.7a474.89,474.89,0,0,0,75.65,64.11l18.06,12.3L341,808.79A631.39,631.39,0,0,1,212.16,475.57l-.23-2.75-81-12.47.39,4.44a471,471,0,0,0,86.73,233.72c-.5.2-1,.41-1.43.64a35.34,35.34,0,0,0-8.14,5.09,35,35,0,1,0,45,53.6,27.93,27.93,0,0,0,2.9-2.7l.16-.17a31.42,31.42,0,0,0,2.34-2.79,15.22,15.22,0,0,0,1.21-1.67ZM237,751.36a25.37,25.37,0,0,1-16.3-44.83,27.56,27.56,0,0,1,4.09-2.79,28.07,28.07,0,0,1,27.63,9.33,27.75,27.75,0,0,1,4.33,28.87,23.18,23.18,0,0,1-3.42,3.48A25.51,25.51,0,0,1,237,751.36Z" transform="translate(-3.5 -3.05)"/><path class="cls-9" d="M10.58,431.22,132.36,450l89.47,13.77A623.19,623.19,0,0,0,374.52,833.15l-3.31-.41c-2.83-.35-5.57-.73-8.23-1.11l-19.19-25A630,630,0,0,1,215.65,475.29l-.46-5.5-5.45-.85-73.85-11.37-8.82-1.36.78,8.89a474.34,474.34,0,0,0,84.94,232,39.35,39.35,0,0,0-6.56,4.43,38.49,38.49,0,1,0,49.47,59,31.92,31.92,0,0,0,3.2-3h0l.11-.11.1-.11c.58-.63,1.23-1.36,1.89-2.19A478.45,478.45,0,0,0,334.3,816.7l19.86,13.54q-2.46-.42-4.86-.87c-2.34-.42-4.83-.89-7.3-1.38-6.14-1.2-12.44-2.63-19.3-4.37-3.53-.87-6.41-1.63-9.08-2.39h-.05c-6.27-1.74-12.52-3.61-18.58-5.59s-12.51-4.24-19-6.74c-3-1.12-5.86-2.28-8-3.16-2.81-1.14-5.69-2.36-8.81-3.71s-6-2.66-8.73-3.93-5.63-2.62-8.6-4.09c-2.81-1.39-5.71-2.82-8.49-4.3-3.14-1.64-5.9-3.11-8.43-4.49-3.07-1.7-5.79-3.24-8.28-4.67-3-1.73-5.62-3.31-8.15-4.86-2.36-1.44-4.93-3-8.06-5-2.72-1.74-5.48-3.59-8.16-5.39-4.41-3-9-6.28-14.59-10.35l-.13-.09-.06,0-.07-.06-.14-.12-.16-.11c-1.86-1.39-3.78-2.82-5.66-4.28-2.47-1.91-5-3.94-8.32-6.6-2.73-2.23-5.47-4.52-8.15-6.82-4.77-4.08-9.49-8.32-14.06-12.61-4.44-4.14-9-8.58-13.43-13.19-2.46-2.54-4.59-4.78-6.51-6.85-4.41-4.77-8.63-9.52-12.52-14.11-2-2.37-4.07-4.83-6-7.25l0,0,0,0c-2-2.42-3.94-4.9-5.84-7.38l-.46-.61c-1.74-2.26-3.53-4.61-5.24-7-4-5.45-7.56-10.52-10.89-15.51-3.2-4.77-6.54-10-10.18-16-3.12-5.16-6.21-10.55-9.43-16.48-3-5.45-5.89-11.16-8.71-17v0c-1.22-2.48-2.5-5.2-4-8.57v0l0,0c-2.59-5.6-5.12-11.49-7.5-17.51v0l0,0c-1.15-2.81-2.33-5.87-3.73-9.62-2.09-5.66-4.11-11.46-6-17.25-.9-2.86-2-6.23-3-9.59-1.77-6-3.4-12.07-5-18.46-2.67-10.87-4.86-21.8-6.53-32.49l0-.09V489c-.33-1.77-.63-3.72-.93-6V483a414.45,414.45,0,0,1-4.26-51.75M230.94,706.56a24.52,24.52,0,0,1,18.82,8.76,24.27,24.27,0,0,1,4,24.82,21.46,21.46,0,0,1-2.62,2.59A21.88,21.88,0,1,1,223,709.23a23,23,0,0,1,3.12-2.18,24,24,0,0,1,4.86-.49M3.5,423.05A422.19,422.19,0,0,0,7.91,484c.28,2.1.6,4.2,1,6.3,1.75,11.2,4,22.23,6.65,33.08,1.58,6.33,3.26,12.56,5.08,18.76,1,3.29,2,6.54,3,9.76q2.88,8.88,6.09,17.54c1.22,3.29,2.48,6.58,3.81,9.83,2.38,6,4.94,12,7.67,17.89,1.33,2.94,2.69,5.88,4.13,8.78q4.24,8.77,8.85,17.26t9.59,16.76c3.36,5.5,6.79,10.92,10.36,16.24s7.28,10.61,11.06,15.75c1.89,2.59,3.85,5.15,5.78,7.67s4,5.07,6,7.56,4.06,4.93,6.13,7.38q6.19,7.31,12.74,14.35c2.17,2.35,4.37,4.66,6.61,7,4.45,4.58,9,9.1,13.69,13.44s9.41,8.64,14.27,12.81q4.11,3.51,8.3,6.93c2.8,2.27,5.6,4.51,8.47,6.72,1.89,1.47,3.81,2.9,5.74,4.34.21.17.39.31.6.45,4.86,3.57,9.8,7.11,14.8,10.5,2.77,1.86,5.53,3.71,8.33,5.5s5.42,3.43,8.19,5.11,5.5,3.32,8.26,4.93,5.6,3.19,8.43,4.76,5.67,3,8.54,4.55,5.75,2.94,8.65,4.38,5.81,2.8,8.75,4.16,5.92,2.7,8.89,4,6,2.56,9,3.78c2.7,1.09,5.42,2.17,8.19,3.22,6.37,2.45,12.85,4.76,19.35,6.86q9.35,3,18.87,5.67c3.08.88,6.2,1.68,9.31,2.45,6.48,1.65,13,3.15,19.64,4.45,2.45.49,4.89.94,7.38,1.4,7.35,1.36,14.8,2.48,22.3,3.43,3.32.42,6.68.8,10,1.15,2.76.28,5.57.53,8.36.74a15,15,0,0,0,1.75.17l1.3.11a613.42,613.42,0,0,1-163.31-384.2L133.42,443,3.5,423.05ZM223.76,700.39a466.52,466.52,0,0,1-88.94-235.9l73.85,11.37A637.21,637.21,0,0,0,338.24,810.92a470.79,470.79,0,0,1-78.4-67.13,9.25,9.25,0,0,1-.63,1.26,16.13,16.13,0,0,1-1,2c-.32.56-.66,1.08-1,1.61a13.38,13.38,0,0,1-1,1.4,29.46,29.46,0,0,1-2.17,2.59.94.94,0,0,0-.1.1,25.5,25.5,0,0,1-2.63,2.45,31.49,31.49,0,1,1-40.49-48.23,32,32,0,0,1,7.38-4.62,17,17,0,0,1,2.1-.87,1.42,1.42,0,0,1,.35-.14c.81-.28,1.61-.53,2.42-.74a3.68,3.68,0,0,1,.63-.17s-.07,0-.11.07a30.68,30.68,0,0,0-5,3.39,28.88,28.88,0,1,0,37.14,44.24,27.2,27.2,0,0,0,4.16-4.3l0,0a31.52,31.52,0,0,0-36-43.36Z" transform="translate(-3.5 -3.05)"/><path class="cls-11" d="M198.57,260.25A28,28,0,0,0,162.68,277a21,21,0,1,1,12.55,26.92A21,21,0,0,1,162.68,277a28,28,0,1,0,35.89-16.73Z" transform="translate(-3.5 -3.05)"/><path class="cls-12" d="M553.28,23.59c-4.2-1.36-8.44-2.52-12.64-3.74v-.11c-1.29-.38-2.59-.7-3.88-1q-3-.89-6.09-1.68c-5.88-1.57-11.76-3-17.64-4.3L488,179.06l26.63,8.65,77.6-149.28Q573.37,30.14,553.28,23.59Z" transform="translate(-3.5 -3.05)"/><path class="cls-12" d="M823,293.27c-1.37-4.2-2.91-8.33-4.42-12.46l.11,0c-.45-1.26-1-2.48-1.44-3.78-.73-2-1.46-3.95-2.24-5.91-2.17-5.67-4.44-11.31-6.85-16.8L658.84,331.87l3,9.1,5.67,17.5,166.35-25Q829.47,313.36,823,293.27Z" transform="translate(-3.5 -3.05)"/><path class="cls-12" d="M763.28,176.19c-2.59-3.6-5.32-7-8-10.5l.07,0c-.83-1.09-1.67-2.1-2.51-3.19-1.33-1.64-2.63-3.29-4-4.93-3.85-4.73-7.73-9.35-11.73-13.83l-118,119.88,16.45,22.68,150.5-75.18Q775.71,193.29,763.28,176.19Z" transform="translate(-3.5 -3.05)"/><path class="cls-12" d="M670.36,83.27c-3.57-2.63-7.22-5-10.86-7.49l0-.07c-1.12-.77-2.24-1.47-3.36-2.24-1.75-1.16-3.54-2.35-5.29-3.47q-7.65-5-15.43-9.55L560.28,211,583,227.4l119.87-118A414.3,414.3,0,0,0,670.36,83.27Z" transform="translate(-3.5 -3.05)"/><path class="cls-12" d="M514.67,658.39l-9.09,3L488,667l25,166.36a414.61,414.61,0,0,0,40.25-10.89c4.2-1.36,8.33-2.9,12.46-4.41l0,.11c1.26-.46,2.48-1,3.74-1.44,2-.73,4-1.47,6-2.24,5.67-2.17,11.27-4.44,16.73-6.86h.07Z" transform="translate(-3.5 -3.05)"/><path class="cls-12" d="M583,618.7l-7.77,5.63-14.91,10.82,75.18,150.5q17.81-10.39,34.9-22.82c3.6-2.59,7-5.32,10.5-8l0,.07c1.08-.84,2.1-1.68,3.15-2.52,1.68-1.33,3.33-2.62,5-4,4.73-3.85,9.35-7.74,13.82-11.73Z" transform="translate(-3.5 -3.05)"/><path class="cls-12" d="M635.6,559.83l-16.45,22.68,118,119.87a410.46,410.46,0,0,0,26.15-32.48c2.63-3.57,5-7.21,7.49-10.85l.07,0c.77-1.12,1.47-2.24,2.24-3.36,1.16-1.75,2.34-3.54,3.46-5.29q5-7.66,9.56-15.43Z" transform="translate(-3.5 -3.05)"/><path class="cls-12" d="M667.49,487.59l-8.65,26.63,149.28,77.6q8.28-18.9,14.84-39c1.36-4.2,2.51-8.44,3.74-12.64h.1c.39-1.29.7-2.59,1.06-3.88.56-2,1.15-4.06,1.68-6.09,1.57-5.88,3-11.76,4.3-17.61v0Z" transform="translate(-3.5 -3.05)"/><polygon class="cls-8" points="367.73 477.22 416.5 428.45 416.5 794.23 367.73 477.22"/><path class="cls-9" d="M416.5,440V751.51L375,481.49,416.5,440m7-16.9-56,56,56,364v-420Z" transform="translate(-3.5 -3.05)"/><polygon class="cls-8" points="45.77 416.5 362.78 367.73 411.55 416.5 45.77 416.5"/><path class="cls-9" d="M365.06,374.51l41.54,41.54H95l270-41.54m2.44-7.46-364,56h420l-56-56Z" transform="translate(-3.5 -3.05)"/><path class="cls-13" d="M427,48.81l23.92,155.5,2.61.34a212.86,212.86,0,0,1,21.52,4l3.83.92c3.48.88,7,1.86,10.41,2.92a4.08,4.08,0,0,0,.7.22c2.67.87,5.43,1.77,8.07,2.75l.36.12,2.38.91,1.85.69,1.05.39.5.49,1.07,0a31.09,31.09,0,0,0,6.86.76A31.42,31.42,0,0,0,530.51,213a31.32,31.32,0,0,0,11.32,23.95l.17.15.19.12c1.22.78,2.44,1.59,3.66,2.4l.07,0c.31.22.65.43,1,.65l.57.37c1.38.91,2.77,1.91,4.11,2.89l2.1,1.51.8.59.36.28,1.59,1.19,1,.73c.42.31.83.62,1.23.94l.08.06c1.5,1.14,3,2.37,4.55,3.66l.31.29.36.19a31.56,31.56,0,0,0,26.25,3.33,31.36,31.36,0,0,0,3.39,26.33l.15.25.19.21a3.87,3.87,0,0,1,.35.45l.34.43s1.62,2,2.31,2.87v.21l.88.91.73,1,.91,1.2,1.16,1.55c.09.12.17.23.25.32l1.06,1.45.4.56c.2.27.4.54.59.82l.08.12c.52.7,1,1.42,1.52,2.15l.94,1.34c.35.51.71,1.06,1.08,1.61s.75,1.14,1.14,1.71l.66,1c.32.48.64,1,.93,1.45l.14.23.18.21a31.42,31.42,0,0,0,24,11.32,31.52,31.52,0,0,0-5.89,18.43,32.57,32.57,0,0,0,.82,7.19l.06.24.09.24c.41,1,.82,2.14,1.23,3.23.18.52.37,1,.56,1.51s.35.93.52,1.4l.09.25c.6,1.72,1.16,3.37,1.71,5,.92,2.83,1.78,5.64,2.61,8.57.15.5.29,1,.44,1.5.28,1,.56,1.89.8,2.84.42,1.58.79,3.16,1.17,4.78.48,1.87.88,3.59,1.25,5.31.22,1,.41,2,.6,3,.11.56.22,1.13.34,1.69l.14.77c.29,1.58.58,3.15.85,4.73.08.57.18,1.16.27,1.75l-36.64-5.66A185.08,185.08,0,0,0,461.42,241.44l-4.94-1,19.29,125.42L427,414.6Z" transform="translate(-3.5 -3.05)"/><path class="cls-14" d="M430.5,94.58l16.57,107.67.79,5.19,5.21.68a205.89,205.89,0,0,1,21.16,4L478,213c3.37.85,6.76,1.81,10.11,2.84.35.13.65.21.87.27,2.61.85,5.29,1.72,7.82,2.66l.11,0,.12,0,.18.06c.77.29,1.54.58,2.27.87h.05l1.87.69,1.45.54a6.6,6.6,0,0,0,1.21.4h0a35.25,35.25,0,0,0,23.42-2.6,34.87,34.87,0,0,0,12.07,20.79l.34.29.38.24c.69.44,1.38.89,2.08,1.36h0l1.58,1,1,.68.55.36c1.3.85,2.59,1.79,4,2.79h0l0,0,.71.51.76.55.63.45.61.44c.15.13.31.25.47.37l.17.13,0,0,1.34,1,1,.78c.41.3.79.58,1.1.84l.09.07.08.06c1.47,1.12,3,2.32,4.47,3.58l0,0,.22.22.67.42a35,35,0,0,0,18.65,5.38,36.08,36.08,0,0,0,4.89-.34,34.94,34.94,0,0,0,5.06,23.57l.3.47.38.43c.07.08.13.17.2.26s.25.33.4.51l.13.16,2.71,3.35.21.3c.27.34.53.69.79,1s.6.8.91,1.19l.66.89.45.6a4.46,4.46,0,0,0,.33.43l1,1.36c.15.19.29.39.44.59s.33.44.49.68l.08.12.08.12c.5.68,1,1.38,1.48,2.08.3.45.61.89.93,1.34s.69,1,1,1.55l1.14,1.71.66,1c.32.47.61.91.85,1.31l.28.46.35.42A34.83,34.83,0,0,0,627.74,319a35.15,35.15,0,0,0-3.55,15.45,36,36,0,0,0,.91,8l.12.49.18.47c.4,1.05.81,2.12,1.21,3.2h0c.19.52.38,1,.58,1.55s.31.82.46,1.24l0,0,.06.19,0,.06,0,.07c.57,1.61,1.12,3.27,1.66,4.89.91,2.8,1.76,5.56,2.58,8.45.14.5.29,1,.44,1.51.28,1,.55,1.87.78,2.74.42,1.61.8,3.21,1.14,4.69l0,.07,0,.07c.45,1.77.84,3.44,1.19,5.11v.1c.21.89.39,1.82.58,2.8.11.55.21,1.1.32,1.64l.14.73c.11.58.21,1.14.31,1.69l-29.49-4.55A188.58,188.58,0,0,0,462.13,238l-9.88-2,1.54,10L472,364.61,430.5,406.15V94.58m-7-91.53v420l56-56L460.71,244.86a182.16,182.16,0,0,1,141,141l43.72,6.76h0c-.07-.56-.17-1.12-.24-1.68-.24-1.61-.53-3.22-.77-4.83-.31-1.89-.67-3.75-1-5.64-.32-1.54-.6-3.11-.95-4.65-.38-1.82-.8-3.61-1.26-5.39s-.77-3.26-1.19-4.87-.84-2.94-1.26-4.41c-.84-2.94-1.71-5.81-2.66-8.71-.56-1.68-1.12-3.36-1.72-5,0-.11-.07-.21-.1-.32-.35-1-.73-1.92-1.09-2.9s-.83-2.24-1.26-3.33a28.5,28.5,0,0,1-.73-6.4,27.94,27.94,0,0,1,15.23-25,28,28,0,0,1-34.16-7c-.53-.88-1.13-1.72-1.68-2.59-.78-1.12-1.51-2.28-2.28-3.4s-1.64-2.38-2.48-3.53c-.36-.53-.74-1-1.09-1.51s-.77-1.05-1.12-1.54c0-.07-.1-.1-.14-.17L602.21,288l-1.75-2.31a.11.11,0,0,1,0-.07l-3.08-3.82c-.27-.35-.52-.7-.8-1a28,28,0,0,1,3.92-34.72A28,28,0,0,1,565.74,250s-.07,0-.11-.07c-1.57-1.33-3.18-2.63-4.79-3.85-.73-.6-1.54-1.16-2.31-1.75l-1.68-1.26c-.07,0-.11-.11-.18-.14-.49-.39-1-.74-1.54-1.12l-1.5-1.09c-1.4-1-2.8-2-4.24-3,0,0,0,0,0,0s-.24-.17-.39-.24c-.38-.25-.76-.49-1.11-.74-1.27-.84-2.52-1.68-3.78-2.48a28,28,0,0,1-7-34.2,28,28,0,0,1-25,15.31,27.52,27.52,0,0,1-6.42-.75.13.13,0,0,1-.07,0c-1.18-.46-2.38-.88-3.56-1.33-.81-.32-1.65-.63-2.49-.95l-.31-.1c-2.73-1-5.54-1.93-8.33-2.84a1.88,1.88,0,0,1-.46-.14q-6.62-2-13.37-3.67c-.42-.11-.84-.25-1.26-.35v.07a214,214,0,0,0-21.87-4.1L423.5,3.05Zm223,306.39-.07,0,.07,0Z" transform="translate(-3.5 -3.05)"/><path class="cls-13" d="M463.8,604.15A185.1,185.1,0,0,0,605.11,460.93l1-4.94L480.72,475.32,432,426.55H703.5a31.33,31.33,0,0,0,29.22-19.74A31.86,31.86,0,0,0,735,395.05a30,30,0,0,0-.36-4.62l97.8,32.62-97.79,32.61a31.21,31.21,0,0,0,.35-4.61,30.56,30.56,0,0,0-2.3-11.8l-1.05-2.54L645.16,450h-2.79l-.47,3a215.08,215.08,0,0,1-4,21.55l-1,4.15c-.84,3.31-1.8,6.69-2.84,10.09a5.72,5.72,0,0,0-.21.66l-.06.18c-.89,2.75-1.74,5.35-2.7,7.92-.06.17-.11.31-.15.45l-.26.69c-.2.55-.41,1.09-.61,1.61s-.45,1.17-.66,1.75c-.14.39-.27.77-.42,1.15l-.5.5,0,1.07a31.46,31.46,0,0,0,5.15,25.28,31.42,31.42,0,0,0-24,11.3l-.14.17-.12.18q-.69,1.08-1.41,2.16l-1,1.54h0l-1,1.57c-.92,1.39-1.92,2.78-2.89,4.12-.35.48-.74,1-1.1,1.52-.13.17-.29.39-.44.61s-.37.53-.57.78l-.34.43v0L599.41,556l-1.73,2.28q-1.65,2.18-3.63,4.52l-.13.1-.2.31-.14.19-.07.15a31.34,31.34,0,0,0-3.32,26.23,31.66,31.66,0,0,0-26.31,3.37l-.24.14-.2.18c-.16.14-.33.26-.5.39l-.37.29-2.89,2.34h-.51l-.81,1-2,1.49-1.54,1.15-.33.25-1.48,1.08-.53.39c-.27.2-.53.4-.82.59l-.12.08c-1.21.88-2.29,1.66-3.43,2.39L548,605c-.76.53-1.54,1-2.33,1.56l-.94.62c-.88.59-1.69,1.13-2.54,1.68L542,609l-.17.14a31.31,31.31,0,0,0-11.36,24,31.82,31.82,0,0,0-25.58-5l-.25.05-.24.1-3.28,1.24-1.32.5c-.49.18-1,.37-1.45.54l-.36.13c-1.68.59-3.34,1.14-5,1.7-2.77.9-5.58,1.76-8.56,2.61l-1.44.42c-1,.28-1.95.57-2.92.83-1.57.4-3.14.78-4.77,1.16-2.08.53-3.75.92-5.29,1.24-1.06.24-2.07.44-3.08.63l-1.56.31-.49.09c-1.68.31-3.34.62-5,.91l-1.71.27ZM748.13,417.58c-.66,1.3-1.34,2.52-2,3.63L745,423.05l1.14,1.84c.69,1.11,1.37,2.33,2,3.62l1.36,2.69L774,423.05l-24.46-8.16Z" transform="translate(-3.5 -3.05)"/><path class="cls-14" d="M738.5,395.4l82.88,27.65L738.5,450.69a34.32,34.32,0,0,0-2.56-12.78l-2.11-5.07-5.42.83L644.9,446.5h-5.66l-.81,6.07a211.69,211.69,0,0,1-4,21.21l-1,4.05c-.83,3.24-1.75,6.55-2.77,9.86-.12.32-.2.6-.25.78l0,.06c-.88,2.74-1.72,5.32-2.66,7.84v.06c-.06.16-.11.32-.16.48l-.22.57-.61,1.61c-.23.59-.46,1.2-.68,1.81l-.48,1.32a6.74,6.74,0,0,0-.55,1.64,35,35,0,0,0,2.67,23.25,34.86,34.86,0,0,0-20.81,12l-.29.34-.24.38c-.44.69-.9,1.39-1.36,2.08h0L603,545.08c-.87,1.32-1.8,2.61-2.79,4l-1.1,1.51-.47.67c-.18.24-.34.47-.46.62l-.69.87,0,.08-.78,1-.88,1.17-.87,1.14c-1,1.3-2.07,2.66-3.24,4.05l-.33.25-.61,1a.22.22,0,0,1-.05.08l0,.06a34.9,34.9,0,0,0-5.08,23.57,36,36,0,0,0-4.89-.33A35,35,0,0,0,562,590.16l-.46.29-.41.37-.31.23-.41.31,0,0,0,.05-1.08.87-2.41,1.95-.35.26-1,.76-1.17.89-.53.4-1,.72c-.13.09-.27.19-.39.29l-1.4,1-.59.43-.66.48-.12.08-.13.09c-1.16.85-2.22,1.6-3.28,2.29l-.11.07-.11.08c-.69.49-1.44,1-2.23,1.5l-.95.62,0,0,0,0c-1,.65-1.71,1.14-2.42,1.59l-.38.24-.34.29a34.89,34.89,0,0,0-12.11,20.84,35.22,35.22,0,0,0-15.4-3.52,35.81,35.81,0,0,0-8,.9l-.5.12-.48.18L500,626.16c-.48.17-1,.35-1.41.53l-1.3.49-.47.16c-1.61.57-3.27,1.12-4.84,1.64-2.75.9-5.52,1.75-8.46,2.59L482,632c-1,.29-1.92.56-2.81.8-1.48.38-3,.73-4.7,1.15h-.11c-2,.5-3.61.88-5.1,1.2h-.12c-.93.21-1.89.4-2.92.6l-1.52.3-.49.09-1.9.35L466.9,607A188.58,188.58,0,0,0,608.53,461.64l2.05-9.88-10,1.54L481.94,471.59,440.4,430.05H703.5a34.82,34.82,0,0,0,32.48-22,35.37,35.37,0,0,0,2.52-12.69m9.24,40.08,5.72-1.91,11.64-3.88L785,423.05l-19.93-6.64-11.64-3.88-5.72-1.91L745,416c-.61,1.2-1.25,2.34-1.88,3.36l-2.28,3.69,2.28,3.68c.63,1,1.27,2.16,1.88,3.37l2.73,5.38m-18.1-50.41a27.84,27.84,0,0,1-.17,20.44,28,28,0,0,1-26,17.54h-280l56,56,122.18-18.83a182.18,182.18,0,0,1-141,141L454,645c.55-.06,1.08-.17,1.64-.24l4.83-.77c1.89-.32,3.75-.67,5.63-1,1.54-.31,3.12-.59,4.66-.94,1.82-.38,3.61-.81,5.39-1.26s3.25-.77,4.86-1.19,2.95-.84,4.42-1.26c2.94-.84,5.8-1.71,8.71-2.66,1.68-.56,3.36-1.12,5-1.71l.32-.11c1-.35,1.92-.73,2.9-1.09s2.24-.84,3.32-1.26a28.65,28.65,0,0,1,6.41-.73,27.93,27.93,0,0,1,25,15.23,28,28,0,0,1,7-34.17c.88-.56,1.72-1.12,2.59-1.71,1.12-.74,2.27-1.47,3.36-2.24s2.41-1.65,3.57-2.49c.53-.35,1-.73,1.5-1.08l1.54-1.12c.08,0,.11-.11.18-.14l1.68-1.26,2.31-1.75a.09.09,0,0,1,.07,0c1.3-1,2.55-2.06,3.81-3.08.36-.28.7-.52,1-.8A28,28,0,0,1,600.46,600a28,28,0,0,1-3.92-34.72s0-.07.07-.11c1.33-1.57,2.63-3.18,3.85-4.79l1.75-2.31,1.26-1.68a.7.7,0,0,0,.14-.18c.39-.49.73-1,1.12-1.54l1.09-1.5c1-1.4,2-2.8,3-4.24,0,0,0,0,0,0s.17-.24.24-.39c.25-.38.49-.76.77-1.15.8-1.23,1.65-2.49,2.45-3.74a28,28,0,0,1,34.17-7,28,28,0,0,1-14.54-31.38.11.11,0,0,1,0-.07c.46-1.15.87-2.38,1.33-3.56.32-.81.63-1.65,1-2.49,0-.11.06-.21.1-.32,1-2.73,1.92-5.52,2.83-8.33a2.64,2.64,0,0,1,.15-.45q2-6.62,3.67-13.37c.1-.42.25-.84.35-1.26h-.07a217.58,217.58,0,0,0,4.1-21.91h.06l84-12.91a27.27,27.27,0,0,1,2,10.46,28.34,28.34,0,0,1-1.86,10l113.86-38-113.86-38Zm21.61,41.86c-.67-1.32-1.39-2.62-2.17-3.88.78-1.26,1.5-2.56,2.17-3.88l11.64,3.88-11.64,3.88ZM646.46,536.64l0,0,0,0ZM537.08,646l0,.06,0-.06Z" transform="translate(-3.5 -3.05)"/></g></g></g></svg>