<svg xmlns="http://www.w3.org/2000/svg" viewBox="0 0 128 128"><defs><style>.cls-1{fill:#d6a270;}.cls-2{fill:#372928;}.cls-3{fill:#b34848;}</style></defs><g id="Layer_2" data-name="Layer 2"><g id="Layer_1-2" data-name="Layer 1"><g id="Finished"><g id="Layer_6" data-name="Layer 6"><g id="Communist"><circle class="cls-1" cx="64" cy="64" r="61.94"/><path class="cls-2" d="M64,0a64,64,0,1,0,64,64A64,64,0,0,0,64,0Zm0,107.35A43.35,43.35,0,1,1,107.35,64,43.35,43.35,0,0,1,64,107.35Z"/><path class="cls-2" d="M103.71,111.52c-.56.48-1.14.94-1.72,1.4l-10.13-13c.42-.33.85-.67,1.26-1Z"/><path class="cls-1" d="M105.84,109.66q-1,1-2.13,1.86L93.12,98.85c.54-.44,1.06-.9,1.57-1.36Z"/><path class="cls-2" d="M24.29,111.52c.56.48,1.14.94,1.72,1.4l10.13-13c-.42-.33-.85-.67-1.26-1Z"/><path class="cls-1" d="M22.16,109.66q1,1,2.13,1.86L34.88,98.85c-.54-.44-1.06-.9-1.57-1.36Z"/><path class="cls-2" d="M102,112.92a61.93,61.93,0,0,1-76,0l10.13-13a45.41,45.41,0,0,0,55.72,0Z"/><path class="cls-3" d="M18.58,64a45.33,45.33,0,0,0,13.3,32.12L20.2,107.8a61.95,61.95,0,0,1,0-87.6L31.88,31.88A45.33,45.33,0,0,0,18.58,64Z"/><path class="cls-2" d="M107.8,20.2,96.12,31.88a45.44,45.44,0,0,0-64.24,0L20.2,20.2a61.95,61.95,0,0,1,87.6,0Z"/><path class="cls-2" d="M107.8,107.8l-.74.72-.51.48-.33.31-.38.35L94.69,97.49l.09-.09.63-.59.71-.69Z"/><path class="cls-3" d="M125.94,64a61.81,61.81,0,0,1-18.14,43.8L96.12,96.12a45.44,45.44,0,0,0,0-64.24L107.8,20.2A61.81,61.81,0,0,1,125.94,64Z"/><path class="cls-1" d="M93.39,105.58l-3.18-4.49a43.6,43.6,0,0,1-8.1,4.56l1.65,3.79A53.28,53.28,0,0,0,95.65,114c-.86.53-1.73,1-2.61,1.56s-1.77,1-2.68,1.41l-1.23-2.46-1.3.63-.66.31-.66.28,2.2,5a60.57,60.57,0,0,0,11-6.23l-2.38-3.37a52.45,52.45,0,0,1-11.92-4.06c.74-.36,1.45-.77,2.18-1.15s1.42-.84,2.12-1.27L91.22,107l1.09-.72C92.68,106.08,93,105.85,93.39,105.58Z"/><path class="cls-1" d="M28.25,114.57a60.57,60.57,0,0,0,11,6.23l1.1-2.53a61.11,61.11,0,0,1-8-4.25l5.9-9.3a50.43,50.43,0,0,0,6.54,3.46l1.1-2.53a43.6,43.6,0,0,1-8.1-4.56Z"/><path class="cls-1" d="M52.48,107.93a43.73,43.73,0,0,0,4.55.95L54.52,125.2,53,124.94l-.78-.14-.78-.16.28-1.35c-1-.22-2-.42-3-.71l-1.5-.4c-.5-.14-1-.31-1.49-.46L45.25,123l-1.52-.49L42.24,122l2.18-5.8c.75-.64,1.48-1.29,2.18-1.94s1.41-1.36,2.08-2,1.32-1.38,2-2.1S51.88,108.66,52.48,107.93Zm.5,3c-.92,1.21-1.88,2.35-2.89,3.52-.51.57-1,1.16-1.56,1.71s-1.07,1.1-1.62,1.65l-.42,1.31c.48.15.94.31,1.42.44l1.43.39c.95.27,1.92.46,2.89.67l2-9.43Z"/><path class="cls-1" d="M69.64,118.76c-.94.1-1.88.15-2.82.22,1,.84,2,1.71,3.09,2.52l.42,4.11c-1,.11-2.11.16-3.16.24L67,123.1c-1.06-.87-2.07-1.78-3-2.67q-.72-.71-1.41-1.41l-1.41,0-.35,6.87c-1-.08-2.11-.13-3.16-.24l1.67-16.43c.77.08,1.55.11,2.32.18l2.34.06,2.34-.06c.77-.07,1.55-.1,2.32-.18Zm-3.17-6.65-2.47.06-2.47-.06-.21,4.12,2.68.07,2.68-.07Z"/><path class="cls-1" d="M80.92,109.1l3.87,10.31c-.31.61-.64,1.22-1,1.83s-.7,1.19-1.07,1.79a60,60,0,0,1-9.27,2.17L71,108.88a43.76,43.76,0,0,0,6.79-1.59c.5.31,1,.64,1.56.94S80.38,108.82,80.92,109.1ZM79,111.22c-.55-.31-1.07-.61-1.6-.94l-1.79.48c-.59.15-1.2.26-1.8.4l2.23,10.78c.74-.16,1.49-.31,2.22-.5l2.2-.58c.36-.58.7-1.18,1-1.77Z"/><path class="cls-1" d="M93,9.28,85.25,23.87c-.34-.18-.67-.39-1-.54l-1-.49c-.71-.32-1.4-.68-2.13-.93l-2.17-.84-2.22-.69L81.23,4.51l3,1c1,.36,2,.76,3,1.14s2,.83,2.91,1.27l1.44.67C92.07,8.76,92.52,9,93,9.28Zm-4,1.09c-1.82-.9-3.73-1.59-5.62-2.3l-3.6,10.4c1.53.59,3.09,1.14,4.56,1.87Z"/><path class="cls-1" d="M65.58,2.11l-.07,2.76,2.28.07c.75,0,1.51.14,2.26.21l-1.39,13.7a22.4,22.4,0,0,1,2.31.28l2.09-13.6c1.5.26,3,.48,4.47.87l.63-2.68-1.55-.37c-.52-.1-1-.18-1.56-.27l-1.57-.27c-.52-.08-1-.19-1.57-.23l-3.16-.32c-.53-.07-1-.07-1.58-.09Z"/><path class="cls-1" d="M105.91,18.43c-.75-.74-1.58-1.41-2.39-2.08l-2.64,3.17-2,.14c-.65,0-1.33.15-2,.23l-1.14-.83-.57-.41-.28-.21-.3-.19,3.83-5.72-2.68-1.7L87.28,25l2,1.25,3.83-5.71.29.18.27.19.54.4,1.08.79c.09.63.18,1.23.23,1.88s.09,1.27.12,1.9L93,29.05c.6.5,1.21,1,1.76,1.53l3.73-4c0-1.29-.09-2.54-.21-3.83,1.29-.12,2.63-.22,3.94-.22Z"/><path class="cls-1" d="M34.22,26.14l-.95.8L24.48,16.35c-.81.67-1.64,1.34-2.39,2.08L33.27,30.58c.55-.55,1.16-1,1.76-1.53l.89-.74c.29-.26.63-.47.93-.7q-.3-1.38-.54-2.79c-.09-.47-.17-.95-.24-1.43L36,22.67,35.87,22c-.22-1.89-.38-3.83-.46-5.81l-3.18-5.32-2.68,1.7,3.07,4.58c.07.75.18,1.54.29,2.31s.23,1.53.37,2.28C33.55,23.22,33.84,24.67,34.22,26.14Z"/><path class="cls-1" d="M46.77,4.51l4.58,15.87-2.22.69L47,21.91c-.73.25-1.42.61-2.13.93l-1,.49c-.36.15-.69.36-1,.54L35,9.28c.47-.24.92-.52,1.4-.74l1.44-.67c1-.44,1.91-.91,2.91-1.27s2-.78,3-1.14ZM44.63,8.07c-1.89.71-3.8,1.4-5.62,2.3l4.66,10c1.47-.73,3-1.28,4.56-1.87Z"/><path class="cls-1" d="M50.78,7.74l-.94-4,1.55-.37c.52-.1,1-.18,1.56-.27l1.57-.27c.52-.08,1-.19,1.57-.23l3.16-.32c.53-.07,1-.07,1.58-.09l1.59-.06.13,5.51-1.44,0a13.9,13.9,0,0,0-1.44.08L59.46,5l-3,.31c-.5,0-1,.14-1.5.22l-1.5.26c.89.66,1.75,1.33,2.58,2S57.66,9.23,58.44,10s1.51,1.44,2.23,2.21,1.4,1.56,2.06,2.34l.1,4.12-1.16,0a11.48,11.48,0,0,0-1.17.07L58.18,19c-.39,0-.77.11-1.15.17l-1.15.2c-.38.07-.76.12-1.14.2l-1.13.27-1.26-5.36,1.27-.3c.43-.09.86-.15,1.29-.23l.49,2.71,1.21-.21c.41-.06.81-.15,1.22-.18L60.29,16A51.63,51.63,0,0,0,50.78,7.74Z"/><polygon class="cls-1" points="110.9 71.43 116.37 76.47 123.13 73.37 117.66 68.32 110.9 71.43"/><path class="cls-1" d="M116.62,43.36l.16-.07a2.75,2.75,0,0,0-2.5-4.91,2.75,2.75,0,1,0-2.5-4.9l-.15.08-.18.12c-1,.65-3.81,3-4.53,8.45,4.84,2.63,8.4,1.71,9.5,1.31Z"/><path class="cls-2" d="M111.28,91.69a2.83,2.83,0,0,0,.5-1.18.07.07,0,0,1,.13,0,2.75,2.75,0,0,0,5,.78,2.75,2.75,0,0,0-1-4,2.72,2.72,0,0,0-2.21-.12.07.07,0,0,1-.07-.11,2.84,2.84,0,0,0,.66-1.1,2.75,2.75,0,1,0-5.26,0,.06.06,0,0,1-.11.06,7.48,7.48,0,0,1-1.25-2.13l-1.87,3.68a7.4,7.4,0,0,1,2.45-.24.07.07,0,0,1,0,.13,2.75,2.75,0,1,0,3.11,4.24Z"/><path class="cls-2" d="M116,61.33l.22-.06c1.12-.32,4.54-1.66,6.91-6.64-3.79-4-7.46-4.22-8.63-4.17h-.22l-.16,0a2.75,2.75,0,0,0-2.29,3.15,2.66,2.66,0,0,0,1.06,1.77h0c.06,0,0,.13-.06.11a7.6,7.6,0,0,1-2.25-1l.64,4.08A7.54,7.54,0,0,1,113.06,57c.06,0,.13,0,.09.09s0,0,0,0a2.64,2.64,0,0,0-.46,2,2.75,2.75,0,0,0,3.15,2.28Z"/><polygon class="cls-1" points="17.1 71.43 11.63 76.47 4.87 73.37 10.34 68.32 17.1 71.43"/><path class="cls-1" d="M11.38,43.36l-.16-.07a2.75,2.75,0,0,1,2.5-4.91,2.75,2.75,0,0,1,2.5-4.9l.15.08.18.12c1,.65,3.81,3,4.53,8.45-4.84,2.63-8.4,1.71-9.5,1.31Z"/><path class="cls-2" d="M19.9,92.63a2.75,2.75,0,0,0-.07-5.18.07.07,0,0,1,0-.13,7.4,7.4,0,0,1,2.45.24l-1.87-3.68A7.48,7.48,0,0,1,19.18,86a.06.06,0,0,1-.11-.06,2.76,2.76,0,1,0-5.26,0,2.84,2.84,0,0,0,.66,1.1.07.07,0,0,1-.07.11,2.72,2.72,0,0,0-2.21.12,2.75,2.75,0,0,0,2.08,5.08,2.77,2.77,0,0,0,1.82-1.89.07.07,0,0,1,.13,0,2.83,2.83,0,0,0,.5,1.18A2.76,2.76,0,0,0,19.9,92.63Z"/><path class="cls-2" d="M12.16,61.36a2.75,2.75,0,0,0,3.15-2.28,2.64,2.64,0,0,0-.46-2s0,0,0,0,0-.14.09-.09a7.54,7.54,0,0,1,1.84,1.63l.64-4.08a7.6,7.6,0,0,1-2.25,1c-.07,0-.12-.07-.06-.11h0a2.66,2.66,0,0,0,1.06-1.77,2.75,2.75,0,0,0-2.29-3.15l-.16,0H13.5c-1.17-.05-4.84.18-8.63,4.17,2.37,5,5.79,6.32,6.91,6.64l.22.06Z"/><path class="cls-2" d="M60.76,22.84a47.06,47.06,0,0,0-5.14,3A46.12,46.12,0,0,0,35.86,57.8q-.15,1.05-.24,2.13l-12.86,2A41.31,41.31,0,0,1,25,50.41c.12-.35.25-.7.38-1,0-.13.1-.26.15-.39s.19-.49.29-.74l.43-1c.24-.54.49-1.07.75-1.6l.45-.86.43-.81a44.46,44.46,0,0,1,2.45-3.88l.54-.74c.36-.49.74-1,1.12-1.44l.59-.7q.29-.35.6-.69c.2-.22.4-.45.61-.67l.63-.66c.44-.45.89-.89,1.35-1.33s.84-.76,1.27-1.13a40.66,40.66,0,0,1,3.67-2.83c.25-.17.5-.34.76-.5l.77-.5.78-.47.8-.46.81-.44c.81-.44,1.64-.84,2.48-1.22l.72-.31.43-.18c.22-.1.44-.18.65-.26l.78-.3.88-.31.88-.3.9-.27.57-.16c.41-.12.83-.23,1.24-.33l.62-.14q.6-.15,1.23-.27l.94-.17.68-.11.64-.09c.23,0,.45-.07.68-.09l.85-.1.81-.07Z"/><path class="cls-2" d="M60.76,105.16h-.18l-.82-.08-1-.11c-.73-.09-1.47-.2-2.19-.34l-.72-.13c-.65-.13-1.3-.28-1.93-.44l-.92-.24c-.62-.17-1.24-.36-1.85-.56s-1.28-.43-1.91-.67l-.8-.32-.88-.37-.88-.39-.86-.41-.85-.43-.84-.45-.83-.47-.81-.48-.8-.51c-.28-.17-.55-.36-.82-.54-.49-.33-1-.68-1.46-1l-.06,0c-.75-.57-1.49-1.16-2.21-1.77-.48-.41-.95-.83-1.4-1.26s-.91-.87-1.35-1.32l-.65-.69c-.43-.46-.85-.93-1.25-1.41-.2-.24-.41-.48-.6-.73s-.4-.49-.59-.74l-.57-.75c-.75-1-1.45-2.07-2.11-3.15-.32-.54-.64-1.09-.94-1.65s-.59-1.12-.87-1.69c-.14-.29-.27-.58-.4-.87-.27-.57-.52-1.16-.76-1.75-.13-.32-.25-.65-.37-1-.21-.57-.41-1.14-.6-1.72l-.3-1c-.18-.61-.34-1.23-.5-1.85-.26-1.07-.48-2.15-.65-3.25,0-.21-.07-.41-.1-.62a42.23,42.23,0,0,1-.43-6l12.77,2c0,.71.08,1.42.14,2.11a46.06,46.06,0,0,0,20,34.06A44.71,44.71,0,0,0,60.76,105.16Z"/><path class="cls-2" d="M25,59.46,35.86,57.8A46.12,46.12,0,0,1,55.62,25.86l.18-.23A39.27,39.27,0,0,0,25,59.46ZM60.76,22.84h-.15l-.81.07L59,23c-.23,0-.45.05-.68.09l-.64.09-.68.11-.94.17q-.63.12-1.23.27l-.62.14c-.41.1-.83.21-1.24.33l-.57.16-.9.27-.88.3-.88.31-.78.3c-.21.08-.43.16-.65.26l-.43.18-.72.31c-.84.38-1.67.78-2.48,1.22l-.81.44-.8.46-.78.47-.77.5c-.26.16-.51.33-.76.5A40.66,40.66,0,0,0,37,32.73c-.43.37-.86.75-1.27,1.13s-.91.88-1.35,1.33l-.63.66c-.21.22-.41.45-.61.67s-.41.46-.6.69l-.59.7c-.38.48-.76,1-1.12,1.44l-.54.74A44.46,44.46,0,0,0,27.88,44l-.43.81-.45.86c-.26.53-.51,1.06-.75,1.6l-.43,1c-.1.25-.2.5-.29.74s-.11.26-.15.39c-.13.34-.26.69-.38,1A41.31,41.31,0,0,0,22.76,61.9l12.86-2L45,58.48a60.34,60.34,0,0,1,15.9-35.65ZM43.09,56.68,35.86,57.8A46.12,46.12,0,0,1,55.62,25.86,62.9,62.9,0,0,0,43.09,56.68Z"/><path class="cls-3" d="M55.62,25.86A62.9,62.9,0,0,0,43.09,56.68L35.86,57.8A46.12,46.12,0,0,1,55.62,25.86Z"/><path class="cls-2" d="M55.62,102.13a46.06,46.06,0,0,1-20-34.06L24.85,66.42a39.25,39.25,0,0,0,30.95,36ZM44.83,67.4,35.48,66,22.71,64a42.23,42.23,0,0,0,.43,6c0,.21.06.41.1.62.17,1.1.39,2.18.65,3.25.16.62.32,1.24.5,1.85l.3,1c.18.58.38,1.15.6,1.72.12.32.24.65.37,1,.24.59.49,1.18.76,1.75.13.29.26.58.4.87.28.57.57,1.14.87,1.69s.62,1.11.94,1.65c.66,1.08,1.36,2.13,2.11,3.15l.57.75c.19.25.39.5.59.74s.4.49.6.73c.4.48.82,1,1.25,1.41l.65.69q.66.67,1.35,1.32c.45.43.92.85,1.4,1.26.72.61,1.45,1.2,2.21,1.77l.06,0c.48.35,1,.7,1.46,1,.27.18.54.37.82.54l.8.51.81.48.83.47.84.45.85.43.86.41.88.39.88.37.8.32c.63.24,1.27.46,1.91.67s1.23.39,1.85.56l.92.24c.63.16,1.28.31,1.93.44l.72.13c.72.14,1.46.25,2.19.34l1,.11.82.08h.3A60.27,60.27,0,0,1,44.83,67.4Zm-9.21.67,7.26,1.12a62.6,62.6,0,0,0,12.74,32.94A46.06,46.06,0,0,1,35.62,68.07Z"/><path class="cls-3" d="M55.62,102.13a46.06,46.06,0,0,1-20-34.06l7.26,1.12A62.6,62.6,0,0,0,55.62,102.13Z"/><circle class="cls-2" cx="39.91" cy="40.26" r="4.13"/><path class="cls-3" d="M43.36,38a4,4,0,0,0-.66-.48,3.78,3.78,0,1,0-3,6.88,4,4,0,0,1-1.81-.55A4.13,4.13,0,1,1,42,36.68,4.2,4.2,0,0,1,43.36,38Z"/><circle class="cls-2" cx="45.08" cy="94.28" r="3.1"/><path class="cls-3" d="M44.35,91.27a2.39,2.39,0,0,0-.51.34A2.84,2.84,0,1,0,47.49,96a3.57,3.57,0,0,0,.43-.44,3.18,3.18,0,0,1-.85,1.13,3.1,3.1,0,1,1-2.72-5.38Z"/><path class="cls-2" d="M40,53.17a2.75,2.75,0,0,1-1.64-3.53A2.06,2.06,0,1,0,41,48.41a2.07,2.07,0,0,0-2.64,1.23A2.75,2.75,0,1,1,40,53.17Z"/><path class="cls-2" d="M53,44.39a5.5,5.5,0,0,1-5.51,5.5A5.51,5.51,0,0,1,53,55.4a5.51,5.51,0,0,1,5.5-5.51A5.5,5.5,0,0,1,53,44.39ZM53,51a7.55,7.55,0,0,0-1.13-1.13A6.71,6.71,0,0,0,53,48.76a6.71,6.71,0,0,0,1.13,1.13A7.55,7.55,0,0,0,53,51Z"/><path class="cls-2" d="M55.74,36.82A4.13,4.13,0,0,1,51.61,41a4.12,4.12,0,0,1,4.13,4.13A4.12,4.12,0,0,1,59.87,41,4.13,4.13,0,0,1,55.74,36.82Zm0,5a5.2,5.2,0,0,0-.85-.84,5.26,5.26,0,0,0,.85-.85,5.69,5.69,0,0,0,.85.85A5.63,5.63,0,0,0,55.74,41.79Z"/><path class="cls-3" d="M85,57.37A21.86,21.86,0,0,1,85.82,61L84,60.73a17.2,17.2,0,0,0-.38-1.79h0c0-.18-.09-.35-.14-.53s-.11-.35-.16-.53-.2-.59-.3-.88-.1-.28-.16-.41,0,0,0,0l-.08-.23a4.59,4.59,0,0,1,0-1.88,4.24,4.24,0,0,1-1.54-1.19l-.11-.14c0-.05-.07-.1-.1-.16a1,1,0,0,1-.08-.11l-.15-.23c-.25-.36-.5-.71-.77-1.05l0-.06-.32-.4,0,0-.09-.13a4.4,4.4,0,0,1-.66-1.84,4.49,4.49,0,0,1-1.83-.66l-.16-.11c-.27-.22-.54-.43-.83-.64l-.47-.35-.18-.12h0l-.24-.16-.28-.19-.14-.1a4.41,4.41,0,0,1-1.19-1.54,4.71,4.71,0,0,1-.85.08,5,5,0,0,1-1-.11l-.23-.08h0l-.1,0-.07,0h0a18.83,18.83,0,0,0-1.84-.6l-.28-1.86c.5.12,1,.26,1.48.41l.82.28.63.24h0a2.76,2.76,0,0,0,3.09-1.43,2.75,2.75,0,0,0,.68,3.36l.52.34h0l.41.3.15.1.15.11.41.31L78,47a2.76,2.76,0,0,0,3.42-.39A2.75,2.75,0,0,0,81,50l.37.47h0l.31.41.11.15.1.15c.11.14.21.29.31.44l.33.49a2.74,2.74,0,0,0,3.36.69,2.76,2.76,0,0,0-1.5,2.46,2.7,2.7,0,0,0,.07.63c.08.21.17.42.24.64S84.92,57.1,85,57.37Z"/><path class="cls-3" d="M70.63,85a21.86,21.86,0,0,1-3.64.82L67.27,84a17.2,17.2,0,0,0,1.79-.38h0l.53-.14.53-.16c.3-.09.59-.2.88-.3l.41-.16h0l.23-.08a4.59,4.59,0,0,1,1.88,0,4.24,4.24,0,0,1,1.19-1.54l.14-.11.16-.1.11-.08.23-.15c.36-.25.71-.5,1-.77l.06,0,.4-.32,0,0,.13-.09a4.4,4.4,0,0,1,1.84-.66,4.49,4.49,0,0,1,.66-1.83l.11-.16c.22-.27.43-.54.64-.83s.24-.31.35-.47l.12-.18h0l.16-.24c.07-.09.13-.19.19-.28l.1-.14a4.41,4.41,0,0,1,1.54-1.19,4.71,4.71,0,0,1-.08-.85,5,5,0,0,1,.11-1l.08-.23v0a.3.3,0,0,1,0-.1.19.19,0,0,1,0-.07h0a18.83,18.83,0,0,0,.6-1.84l1.86-.28c-.12.5-.26,1-.41,1.48-.09.28-.18.55-.28.82l-.24.63h0a2.76,2.76,0,0,0,1.43,3.09,2.75,2.75,0,0,0-3.36.68c-.11.18-.22.35-.34.52h0l-.3.41-.1.15-.11.15-.31.41L81,78a2.76,2.76,0,0,0,.39,3.42A2.75,2.75,0,0,0,78,81l-.47.37h0l-.41.31-.15.11-.15.1c-.14.11-.29.21-.44.31l-.49.33a2.74,2.74,0,0,0-.69,3.36,2.76,2.76,0,0,0-2.46-1.5,2.7,2.7,0,0,0-.63.07c-.21.08-.42.17-.64.24S70.9,84.92,70.63,85Z"/><path class="cls-3" d="M64,86a22,22,0,0,0,0-44Z"/><path class="cls-2" d="M64,81.89a17.89,17.89,0,0,0,0-35.78Z"/><path class="cls-3" d="M103.27,51.24c.43,1.32.78,2.64,1.07,4L88,57.65,87.14,55l14.67-7.63C102.35,48.65,102.84,49.93,103.27,51.24Z"/><path class="cls-3" d="M97.4,39.73c.82,1.12,1.56,2.26,2.25,3.43l-14.8,7.39-1.62-2.23,11.6-11.78A40.24,40.24,0,0,1,97.4,39.73Z"/><path class="cls-3" d="M88.27,30.6a40.24,40.24,0,0,1,3.19,2.57L79.68,44.77l-2.23-1.62,7.39-14.8C86,29,87.15,29.78,88.27,30.6Z"/><path class="cls-3" d="M76.76,24.73c1.31.43,2.59.92,3.83,1.46L73,40.86,70.35,40,72.8,23.66C74.12,24,75.44,24.3,76.76,24.73Z"/><path class="cls-3" d="M103.27,76.76c.43-1.32.78-2.64,1.07-4L88,70.35,87.14,73l14.67,7.63C102.35,79.35,102.84,78.07,103.27,76.76Z"/><path class="cls-3" d="M97.4,88.27c.82-1.12,1.56-2.26,2.25-3.43l-14.8-7.39-1.62,2.23,11.6,11.78A40.24,40.24,0,0,0,97.4,88.27Z"/><path class="cls-3" d="M88.27,97.4a40.24,40.24,0,0,0,3.19-2.57L79.68,83.23l-2.23,1.62,7.39,14.8C86,99,87.15,98.22,88.27,97.4Z"/><path class="cls-3" d="M76.76,103.27c1.31-.43,2.59-.92,3.83-1.46L73,87.14,70.35,88l2.45,16.35C74.12,104.05,75.44,103.7,76.76,103.27Z"/><path class="cls-2" d="M102.85,50,87.43,55.93,87.14,55l14.67-7.63C102.18,48.26,102.53,49.13,102.85,50Z"/><path class="cls-2" d="M96.62,38.69,83.79,49.09l-.56-.77,11.6-11.78C95.45,37.23,96.05,38,96.62,38.69Z"/><path class="cls-2" d="M87.21,29.85l-9,13.85-.76-.55,7.39-14.8Q86,29.06,87.21,29.85Z"/><path class="cls-2" d="M75.52,24.35,71.24,40.3,70.35,40,72.8,23.66C73.71,23.85,74.61,24.08,75.52,24.35Z"/><path class="cls-2" d="M78,102.85,72.07,87.43l.89-.29,7.63,14.67C79.74,102.18,78.87,102.53,78,102.85Z"/><path class="cls-2" d="M89.31,96.62,78.91,83.79l.77-.56,11.78,11.6C90.77,95.45,90.05,96.05,89.31,96.62Z"/><path class="cls-2" d="M98.15,87.21l-13.85-9,.55-.76,14.8,7.39Q98.95,86,98.15,87.21Z"/><path class="cls-2" d="M103.65,75.52l-16-4.28.29-.89,16.35,2.45C104.15,73.71,103.92,74.61,103.65,75.52Z"/><polygon class="cls-2" points="64 22.71 58.49 58.49 64 64 64 22.71"/><polygon class="cls-2" points="64 64 64 105.29 69.5 69.5 64 64"/><polygon class="cls-2" points="64 64 22.71 64 58.49 69.5 64 64"/><path class="cls-2" d="M105.29,64,94.1,60.27a2.84,2.84,0,0,1,.18,1,2.74,2.74,0,0,1-.2,1L85.82,61,69.51,58.49,64,64H91.53a2.75,2.75,0,0,1,2.75,2.75,2.84,2.84,0,0,1-.18,1Zm-9.51-1.36L99.85,64l-4.07,1.36A4.46,4.46,0,0,0,95.05,64,4.46,4.46,0,0,0,95.78,62.64Z"/><path class="cls-3" d="M94.08,65.72A2.75,2.75,0,0,0,91.53,64H64l5.51,5.51Z"/><polygon class="cls-3" points="64 22.71 69.5 58.49 64 64 64 22.71"/><polygon class="cls-3" points="64 64 64 105.29 58.49 69.5 64 64"/><polygon class="cls-3" points="64 64 22.71 64 58.49 58.49 64 64"/></g></g></g></g></g></svg>