<svg xmlns="http://www.w3.org/2000/svg" viewBox="0 0 80 24"><defs><style>.cls-1{fill:#aaaab3;}</style></defs><g id="Layer_2" data-name="Layer 2"><g id="Layer_1-2" data-name="Layer 1"><g id="Finished"><g id="Layer_6" data-name="Layer 6"><g id="News"><polygon class="cls-1" points="64 6 64 0 80 0 80 8 76 8 76 4 68 4 80 18 80 24 64 24 64 16 68 16 68 20 76 20 64 6"/><polygon class="cls-1" points="12 0 12 13 4 5 4 0 0 0 0 24 4 24 4 11 12 19 12 24 16 24 16 0 12 0"/><polygon class="cls-1" points="36 4 36 0 20 0 20 24 36 24 36 20 24 20 24 14 32 14 32 10 24 10 24 4 36 4"/><polygon class="cls-1" points="56 0 56 20 54 20 52 18 52 4 48 4 48 18 46 20 44 20 44 0 40 0 40 24 44 24 48 24 50 22 52 24 56 24 60 24 60 0 56 0"/></g></g></g></g></g></svg>