<svg xmlns="http://www.w3.org/2000/svg" width="234" height="36" viewBox="0 0 234 36">
  <defs>
    <style>
      .cls-1 {
        fill: #d6a26f;
      }
    </style>
  </defs>
  <g id="Products" transform="translate(-713 -258)">
    <path id="Path_1304" data-name="Path 1304" class="cls-1" d="M773,258v36h24V258Zm18,30H779V264h12Z"/>
    <path id="Path_1305" data-name="Path 1305" class="cls-1" d="M851,258v30H839V258h-6v36h24V258Z"/>
    <path id="Path_1306" data-name="Path 1306" class="cls-1" d="M923,267v-9h24v12h-6v-6H929l18,21v9H923V282h6v6h12Z"/>
    <path id="Path_1307" data-name="Path 1307" class="cls-1" d="M893,258v6h9v30h6V264h9v-6Z"/>
    <path id="Path_1308" data-name="Path 1308" class="cls-1" d="M887,294v-6H869V264h18v-6H863v36Z"/>
    <path id="Path_1309" data-name="Path 1309" class="cls-1" d="M767,258H743v36h6V279h3l9,9v6h6v-9l-6-6h6Zm-6,15H749v-9h12Z"/>
    <path id="Path_1310" data-name="Path 1310" class="cls-1" d="M713,258v36h6V279h18V258Zm18,15H719v-9h12Z"/>
    <path id="Path_1311" data-name="Path 1311" class="cls-1" d="M803,258v36h18l6-6V264l-6-6Zm15,30h-9V264h9l3,3v18Z"/>
  </g>
</svg>
