<svg xmlns="http://www.w3.org/2000/svg" viewBox="0 0 320 320"><defs><style>.cls-1{fill:#29292e;}.cls-2{fill:#2e2e33;}</style></defs><title>Texture</title><g id="Layer_2" data-name="Layer 2"><g id="Layer_1-2" data-name="Layer 1"><polygon class="cls-1" points="320 0 160 160 176 132.28 252.38 0 320 0"/><polygon class="cls-1" points="202.88 0 168.28 129.08 160 160 160 0 202.88 0"/><polygon class="cls-1" points="160 160 132.28 144 0 67.62 0 0 160 160"/><polygon class="cls-1" points="160 160 0 160 0 117.12 129.08 151.72 160 160"/><polygon class="cls-1" points="160 160 144 187.72 67.62 320 0 320 160 160"/><polygon class="cls-1" points="160 160 160 320 117.12 320 151.72 190.92 160 160"/><polygon class="cls-1" points="320 252.38 320 320 160 160 187.72 176 320 252.38"/><polygon class="cls-1" points="320 160 320 202.88 190.92 168.28 160 160 320 160"/><polygon class="cls-1" points="160 160 144 132.28 67.62 0 117.12 0 151.72 129.08 160 160"/><polygon class="cls-1" points="160 160 132.28 176 0 252.38 0 202.88 129.08 168.28 160 160"/><polygon class="cls-1" points="252.38 320 202.88 320 168.28 190.92 160 160 176 187.72 252.38 320"/><polygon class="cls-1" points="320 67.62 320 117.12 190.92 151.72 160 160 187.72 144 320 67.62"/><polygon class="cls-2" points="252.38 0 176 132.28 160 160 168.28 129.08 202.88 0 252.38 0"/><polygon class="cls-2" points="160 160 129.08 151.72 0 117.12 0 67.62 132.28 144 160 160"/><polygon class="cls-2" points="160 160 151.72 190.92 117.12 320 67.62 320 144 187.72 160 160"/><polygon class="cls-2" points="320 202.88 320 252.38 187.72 176 160 160 190.92 168.28 320 202.88"/><polygon class="cls-2" points="160 0 160 160 151.72 129.08 117.12 0 160 0"/><polygon class="cls-2" points="160 160 0 0 67.62 0 144 132.28 160 160"/><polygon class="cls-2" points="160 160 129.08 168.28 0 202.88 0 160 160 160"/><polygon class="cls-2" points="160 160 0 320 0 252.38 132.28 176 160 160"/><polygon class="cls-2" points="202.88 320 160 320 160 160 168.28 190.92 202.88 320"/><polygon class="cls-2" points="320 320 252.38 320 176 187.72 160 160 320 320"/><polygon class="cls-2" points="320 117.12 320 160 160 160 190.92 151.72 320 117.12"/><polygon class="cls-2" points="320 0 320 67.62 187.72 144 160 160 320 0"/><circle class="cls-2" cx="160" cy="160" r="24"/><path id="For_Website" data-name="For Website" class="cls-1" d="M154.45,150.12a2.77,2.77,0,0,1-2.77,2.77,2.77,2.77,0,0,1,2.77,2.78,2.77,2.77,0,0,1,2.78-2.78A2.77,2.77,0,0,1,154.45,150.12Zm1.39-3.81a2.08,2.08,0,0,1-2.08,2.08,2.08,2.08,0,0,1,2.08,2.08,2.08,2.08,0,0,1,2.08-2.08A2.08,2.08,0,0,1,155.84,146.31Zm2.59-7.05a30.34,30.34,0,0,0-8,18l-11.19,1.72a20.75,20.75,0,0,1,12.84-18.18,21.21,21.21,0,0,1,5.05-1.36l.33-.05.84-.08h.14ZM147.08,150l.11,0,.16,0,.08,0a1,1,0,0,0,.26,0h.05a1.9,1.9,0,1,1,1.86-3.23l-.08-.11a1.34,1.34,0,0,0-.16-.19l-.08-.08-.07-.06-.17-.12a2.08,2.08,0,1,0-2,3.63Zm8.7-9.17a23.07,23.07,0,0,0-6.15,6.15,2.09,2.09,0,0,1-1.82,3.18,23.28,23.28,0,0,0-2,6.76l3.65-.57A31.68,31.68,0,0,1,155.78,140.79Zm2.65,40h-.15l-.42,0-.49-.05-1.11-.17-.36-.07-1-.22-.46-.13c-.31-.08-.62-.18-.93-.28s-.64-.21-1-.34l-.41-.16-.44-.18-.44-.2-.43-.21-.43-.21-.42-.23-.42-.23-.41-.25-.41-.25-.41-.27-.73-.52,0,0-.29-.21-.42-.33-.41-.35c-.24-.2-.47-.42-.7-.63s-.46-.44-.68-.67l-.33-.34c-.21-.24-.43-.47-.63-.71l-.3-.37-.3-.37c-.1-.13-.19-.26-.29-.38s-.37-.52-.54-.78-.35-.54-.52-.81-.32-.55-.47-.83-.3-.56-.44-.85-.14-.29-.2-.44-.27-.59-.38-.88-.13-.33-.19-.49-.21-.58-.31-.87-.1-.32-.14-.48c-.09-.31-.18-.62-.26-.93-.13-.54-.24-1.09-.32-1.64,0-.1,0-.21-.05-.31a20.16,20.16,0,0,1-.22-3l6.43,1,4.71.72A30.38,30.38,0,0,0,158.43,180.74Zm-2.65-1.53a31.54,31.54,0,0,1-6.42-16.59l-3.66-.57a23.08,23.08,0,0,0,4.41,11.69,1.57,1.57,0,0,1,1.55.51,1.53,1.53,0,0,1,.23,1.63h0a2.08,2.08,0,0,1-.21.21,1.43,1.43,0,0,1-1.83-2.19,1.31,1.31,0,0,1,.24-.17h0l-.12,0h0l-.1,0a1.62,1.62,0,0,0-.37.23,1.56,1.56,0,0,0,2,2.39l.13-.12h0a.69.69,0,0,0,.11-.13.18.18,0,0,0,0-.07l.05-.07.05-.1a.09.09,0,0,0,0-.06A23.3,23.3,0,0,0,155.78,179.21Zm-6.92-27.27a1.38,1.38,0,0,0-1.78.83,1,1,0,1,1,.62,1.33,1,1,0,0,1-.62-1.33,1.39,1.39,0,1,0,1.78-.83Zm17.57-11.72-.63-.19h0l-.19-.05-.3-.08c-.29-.08-.58-.15-.88-.21l-1.23,8.24,1.32.42,3.84-7.39C167.73,140.68,167.09,140.43,166.43,140.22Zm13.35,13.35c-.06-.21-.14-.41-.21-.61h0l-.07-.18-.11-.3c-.11-.28-.22-.56-.34-.83l-7.39,3.84.14.45.28.87,8.24-1.23A17.93,17.93,0,0,0,179.78,153.57Zm-2.95-5.8-.4-.52h0a1,1,0,0,1-.13-.16l-.2-.24c-.19-.23-.38-.46-.58-.68l-5.84,5.93.81,1.13L178,149.5A20.48,20.48,0,0,0,176.83,147.77Zm-4.6-4.6-.54-.37h0l-.17-.11-.26-.18-.76-.47-3.73,7.46,1.13.81,5.93-5.84A18.5,18.5,0,0,0,172.23,143.17Zm-7.71,28.49-.45.14-.87.28,1.23,8.24a17.93,17.93,0,0,0,2-.54c.21-.06.41-.14.61-.21h0l.18-.07.3-.11.83-.34h0Zm3.38-2-.39.28-.74.53L170.5,178a20.48,20.48,0,0,0,1.73-1.13l.52-.4h0l.15-.13.25-.2c.23-.19.46-.38.68-.58Zm2.6-2.92-.81,1.13,5.84,5.93a18.5,18.5,0,0,0,1.3-1.6l.37-.54h0a1,1,0,0,0,.11-.17l.18-.26.47-.76Zm1.58-3.57-.42,1.32,7.39,3.84c.27-.63.52-1.27.73-1.93.07-.21.13-.42.19-.63h0a1.33,1.33,0,0,1,.05-.19c0-.1.05-.2.08-.3q.12-.44.21-.87h0Zm-14.85-.43,2.77,18V160Zm0-5.54-18,2.77H160Zm13.71.94a2.74,2.74,0,0,0-.05-.28,1.89,1.89,0,0,0,0-.23,2.61,2.61,0,0,0-.06-.27l-.06-.24-.06-.22c0-.14-.08-.28-.13-.43l-.09-.25h0a.88.88,0,0,1-.05-.15,1.11,1.11,0,0,1-.07-.16,1.73,1.73,0,0,1,0-.32,1.39,1.39,0,0,1,.75-1.24,1.39,1.39,0,0,1-1.69-.34l-.08-.13-.12-.17-.12-.18-.05-.07-.06-.08h0l-.06-.09-.09-.11h0l-.15-.18,0,0a1.39,1.39,0,0,1,.19-1.72,1.39,1.39,0,0,1-1.72.19h0l-.24-.19-.11-.09-.09-.06h0l-.08-.06-.07-.05-.21-.15h0l-.05,0-.19-.12a1.39,1.39,0,0,1-.34-1.69,1.4,1.4,0,0,1-1.56.72h0l-.18-.07-.12-.05h0l-.41-.14h0l-.66-.18-.07,0h0c-.35-.08-.71-.15-1.08-.2L160,139.2V160l2.77-2.77-.93-6.06a9,9,0,0,1,7,7l2.16.33h0s0-.05,0-.08S171,158.25,170.94,158.17Zm4.22,3.71a1.33,1.33,0,0,0,.09-.49,1.27,1.27,0,0,0-.1-.52l-4.16.64h0c-.05.37-.12.73-.2,1.08h0a.64.64,0,0,0,0,.07q-.08.33-.18.66v0c0,.14-.09.28-.14.41v0l-.05.12a1.34,1.34,0,0,1-.07.18h0a1.4,1.4,0,0,0,.72,1.56,1.39,1.39,0,0,0-1.69.34l-.12.19,0,.05v0h0l-.15.21-.05.07-.06.08h0l-.06.09-.09.11-.19.24h0a1.39,1.39,0,0,0,.19,1.72,1.39,1.39,0,0,0-1.72-.19l0,0-.18.15h0l-.11.09-.09.06h0l-.08.06-.07.05-.18.12-.17.11-.13.09a1.39,1.39,0,0,0-.34,1.69,1.39,1.39,0,0,0-1.24-.75,1.73,1.73,0,0,0-.32,0l-.16.07-.15.05h0l-.25.09-.43.13-.22.06-.24.06a2.61,2.61,0,0,1-.27.06l-.23,0-.28.05-.24,0h-.08l.33-2.17a9,9,0,0,0,7-7l-6,.93L160,160h13.87a1.38,1.38,0,0,0,1.28-.87,1.27,1.27,0,0,0,.1-.52,1.33,1.33,0,0,0-.09-.49L180.8,160Zm1-1.88.1.19.58-.19-.58-.19Z"/></g></g></svg>