<svg xmlns="http://www.w3.org/2000/svg" width="483" height="220.019" viewBox="0 0 483 220.019">
  <defs>
    <style>
      .cls-1 {
        fill: #b19a47;
        stroke: #4c4028;
        stroke-linecap: round;
        stroke-linejoin: round;
        stroke-width: 3px;
      }
    </style>
  </defs>
  <g id="Title" transform="translate(1.5 1.5)">
    <g id="Gangdom" transform="translate(0 116.981)">
      <path id="Path_1375" data-name="Path 1375" class="cls-1" d="M753.917,438.463l-.051-.019v.019h-10v100h10v-20h40v7.055a14.473,14.473,0,0,1-8,12.945h18v-30A74.028,74.028,0,0,0,753.917,438.463Zm-.051,70V449.12a64.017,64.017,0,0,1,40,59.343Z" transform="translate(-673.866 -438.444)"/>
      <path id="Path_1376" data-name="Path 1376" class="cls-1" d="M863.866,438.481h-8a14.472,14.472,0,0,1,8,12.944v37.988a125.433,125.433,0,0,0-39.988-50.932H813.866v100h18a14.473,14.473,0,0,1-8-12.944V451.3a114.729,114.729,0,0,1,40,87.176h10v-100Z" transform="translate(-673.866 -438.444)"/>
      <path id="Path_1377" data-name="Path 1377" class="cls-1" d="M693.866,498.481v18h0a14.471,14.471,0,0,1,12.944-8h17.056a20,20,0,0,1-20.342,20,20.214,20.214,0,0,1-19.658-20.326V468.783a20.2,20.2,0,0,1,19.636-20.3,19.936,19.936,0,0,1,14.895,6.259,8.718,8.718,0,0,1-2.531,13.738h18a30,30,0,1,0-60,.376v39.192c0,16.59,13.283,30.363,29.874,30.432a29.889,29.889,0,0,0,20.126-7.645v.022a8.746,8.746,0,0,1-2.562,6.184l-1.438,1.439h14v-40h-40Z" transform="translate(-673.866 -438.444)"/>
      <path id="Path_1378" data-name="Path 1378" class="cls-1" d="M903.866,498.481v18h0a14.471,14.471,0,0,1,12.944-8h17.056a20,20,0,0,1-20.342,20,20.214,20.214,0,0,1-19.658-20.326V468.783a20.2,20.2,0,0,1,19.636-20.3,19.936,19.936,0,0,1,14.895,6.259,8.718,8.718,0,0,1-2.531,13.738h18a30,30,0,1,0-60,.376v39.192c0,16.59,13.283,30.363,29.874,30.432a29.889,29.889,0,0,0,20.126-7.645v.022a8.746,8.746,0,0,1-2.562,6.184l-1.438,1.439h14v-40h-40Z" transform="translate(-673.866 -438.444)"/>
      <path id="Path_1379" data-name="Path 1379" class="cls-1" d="M1143.866,438.463h-.28a182.162,182.162,0,0,0-19.72,40.192,181.976,181.976,0,0,0-19.716-40.192h-10.284v100h18a14.473,14.473,0,0,1-8-12.945V457.643a172.317,172.317,0,0,1,20,80.82,172.321,172.321,0,0,1,20-80.82v67.875a14.473,14.473,0,0,1-8,12.945h18v-100Z" transform="translate(-673.866 -438.444)"/>
      <path id="Path_1380" data-name="Path 1380" class="cls-1" d="M983.866,438.463h-30v100h30a30,30,0,0,0,30-30v-40A30,30,0,0,0,983.866,438.463Zm0,90h-20v-80h20a20,20,0,0,1,20,20v40A20,20,0,0,1,983.866,528.463Z" transform="translate(-673.866 -438.444)"/>
      <path id="Path_1381" data-name="Path 1381" class="cls-1" d="M1053.866,438.463a30,30,0,0,0-30,30v40a30,30,0,1,0,60,0v-40A30,30,0,0,0,1053.866,438.463Zm0,90a20,20,0,0,1-20-20v-40a20,20,0,0,1,40,0v40A20,20,0,0,1,1053.866,528.463Z" transform="translate(-673.866 -438.444)"/>
    </g>
    <g id="Animal" transform="translate(50)">
      <path id="Path_1382" data-name="Path 1382" class="cls-1" d="M733.917-1.519l-.051-.018v.018h-10v100h10v-20h40v7.056a14.473,14.473,0,0,1-8,12.944h18v-30A74.028,74.028,0,0,0,733.917-1.519Zm-.051,70V9.138a64.019,64.019,0,0,1,40,59.343Z" transform="translate(-723.866 1.556)"/>
      <path id="Path_1383" data-name="Path 1383" class="cls-1" d="M983.917-1.537l-.051-.019v.019h-10v100h10v-20h40v7.055a14.473,14.473,0,0,1-8,12.945h18v-30A74.028,74.028,0,0,0,983.917-1.537Zm-.051,70V9.12a64.017,64.017,0,0,1,40,59.343Z" transform="translate(-723.866 1.556)"/>
      <path id="Path_1384" data-name="Path 1384" class="cls-1" d="M843.866-1.519h-8a14.472,14.472,0,0,1,8,12.944V49.413A125.433,125.433,0,0,0,803.878-1.519H793.866v100h18a14.473,14.473,0,0,1-8-12.944V11.305a114.729,114.729,0,0,1,40,87.176h10v-100Z" transform="translate(-723.866 1.556)"/>
      <path id="Path_1385" data-name="Path 1385" class="cls-1" d="M883.866-1.519h-20v18l1.316-2.634a9.708,9.708,0,0,1,8.684-5.366h0v80h0a9.709,9.709,0,0,1-8.684-5.367l-1.316-2.633v18h30v-18l-1.317,2.633a9.709,9.709,0,0,1-8.683,5.367h0v-80h0a9.708,9.708,0,0,1,8.683,5.366l1.317,2.634v-18Z" transform="translate(-723.866 1.556)"/>
      <path id="Path_1386" data-name="Path 1386" class="cls-1" d="M953.866-1.519h-.28a182.162,182.162,0,0,0-19.72,40.192A181.975,181.975,0,0,0,914.15-1.519H903.866v100h18a14.473,14.473,0,0,1-8-12.944V17.661a172.321,172.321,0,0,1,20,80.82,172.319,172.319,0,0,1,20-80.82V85.537a14.473,14.473,0,0,1-8,12.944h18v-100Z" transform="translate(-723.866 1.556)"/>
      <path id="Path_1387" data-name="Path 1387" class="cls-1" d="M1093.866,68.463h-8a14.471,14.471,0,0,1,8,12.944v7.056h-40V11.407a14.471,14.471,0,0,1,8-12.944h-18v100h60v-30Z" transform="translate(-723.866 1.556)"/>
    </g>
  </g>
</svg>
